<?xml version="1.0" standalone="no"?>
<!DOCTYPE svg PUBLIC "-//W3C//DTD SVG 20010904//EN"
 "http://www.w3.org/TR/2001/REC-SVG-20010904/DTD/svg10.dtd">
<svg version="1.0" xmlns="http://www.w3.org/2000/svg"
 width="1024.000000pt" height="1024.000000pt" viewBox="0 0 1024.000000 1024.000000"
 preserveAspectRatio="xMidYMid meet">

<g transform="translate(0.000000,1024.000000) scale(0.100000,-0.100000)"
fill="#000000" stroke="none">
<path d="M0 9085 l0 -1155 146 0 c94 0 143 -4 139 -10 -4 -6 -63 -10 -146 -10
l-139 0 0 -140 0 -140 180 0 180 0 0 -45 0 -45 -180 0 -180 0 0 -2030 0 -2030
35 0 c28 0 35 -4 35 -20 0 -16 -7 -20 -35 -20 l-35 0 0 -1487 0 -1488 542 -3
c397 -2 545 -6 550 -15 4 -6 6 -12 5 -14 -2 -1 -245 -3 -540 -5 -469 -3 -539
-1 -547 12 -6 10 -10 -65 -10 -212 l0 -228 1825 0 c1614 0 1826 2 1831 15 8
19 24 19 24 0 0 -8 7 -15 15 -15 8 0 15 7 15 15 0 15 12 16 148 19 20 1 27 -4
26 -16 -2 -17 160 -18 3177 -18 l3179 0 0 3375 0 3375 -685 0 c-602 0 -685 2
-685 15 0 13 83 15 685 15 l685 0 0 1730 0 1730 -5120 0 -5120 0 0 -1155z
m6340 960 l0 -35 -105 0 -105 0 0 35 0 35 105 0 105 0 0 -35z m170 20 c0 -8
-9 -15 -20 -15 -11 0 -20 7 -20 15 0 8 9 15 20 15 11 0 20 -7 20 -15z m1330
-83 c0 -16 -36 -17 -562 -17 -430 0 -562 3 -565 12 -6 16 46 17 645 20 451 2
482 2 482 -15z m-6760 -306 c0 -3 -4 -8 -10 -11 -5 -3 -10 -1 -10 4 0 6 5 11
10 11 6 0 10 -2 10 -4z m-92 -23 c-3 -15 -13 -18 -55 -15 -47 2 -52 0 -55 -20
l-3 -23 -185 1 c-574 4 -560 3 -560 19 0 13 48 15 370 15 363 0 370 0 370 20
0 18 7 20 61 20 52 0 60 -2 57 -17z m8490 -160 c2 -9 -8 -13 -32 -13 -26 0
-36 4 -36 16 0 19 61 16 68 -3z m660 -40 l3 -53 -230 0 -231 0 0 36 c0 21 -4
33 -10 29 -6 -3 -10 4 -10 17 0 18 2 20 10 8 8 -13 10 -12 10 3 0 16 16 17
228 15 l227 -3 3 -52z m-1041 -50 c-137 -2 -357 -2 -490 0 -133 1 -21 2 248 2
270 0 378 -1 242 -2z m-6167 -359 c85 -25 202 -61 260 -79 58 -19 170 -53 250
-75 80 -23 201 -59 270 -80 145 -45 409 -120 625 -179 386 -104 681 -182 795
-212 145 -37 189 -56 221 -99 13 -17 36 -43 50 -59 31 -35 48 -79 148 -401 43
-140 105 -334 136 -430 31 -96 59 -196 62 -221 5 -42 3 -49 -19 -63 -28 -18
-30 -18 -201 44 -65 23 -120 41 -122 39 -3 -4 -52 -203 -127 -514 -92 -387
-153 -622 -187 -725 -21 -63 -43 -131 -48 -150 -9 -32 -10 -30 -8 25 2 33 8
87 14 120 5 33 13 80 16 105 9 70 200 899 273 1184 15 60 24 59 225 -15 48
-17 90 -29 94 -26 7 7 -17 92 -87 312 -26 83 -81 252 -121 378 -40 125 -76
227 -80 227 -4 0 -63 -46 -131 -102 -68 -57 -168 -139 -222 -183 -308 -250
-347 -285 -316 -285 14 0 355 -127 390 -145 39 -20 42 -28 31 -72 -6 -21 -20
-92 -31 -158 -19 -110 -143 -610 -240 -970 -44 -162 -90 -309 -114 -365 l-15
-35 -1 31 c-1 94 34 260 165 784 57 228 117 476 134 550 17 74 33 144 36 155
6 19 -11 27 -182 88 -228 81 -255 94 -267 129 -8 23 -6 32 15 54 26 28 265
229 524 440 195 159 192 157 174 190 -21 39 -74 61 -283 116 -105 27 -238 63
-296 78 -58 16 -172 46 -255 68 -133 36 -285 76 -580 156 -449 121 -1099 286
-1128 286 -49 0 -100 -26 -121 -61 -9 -15 -38 -110 -65 -211 -26 -101 -87
-327 -134 -503 -94 -352 -92 -344 -212 -800 -46 -176 -116 -441 -155 -590 -40
-148 -90 -337 -111 -420 -49 -186 -125 -434 -146 -476 -8 -17 -19 -27 -24 -22
-23 23 42 293 327 1363 24 91 53 203 65 250 11 47 29 114 40 150 10 36 26 94
34 130 8 36 23 97 35 135 11 39 27 104 36 145 9 41 35 143 59 225 23 83 57
206 75 275 86 331 106 385 167 439 25 23 50 41 56 41 6 0 8 3 5 6 -10 9 -72
-22 -95 -47 -28 -31 -26 -27 -144 -399 -55 -173 -129 -403 -164 -510 -35 -107
-114 -352 -175 -545 -61 -192 -138 -431 -170 -530 -33 -99 -113 -346 -179
-550 -114 -349 -179 -533 -181 -510 0 6 -7 -1 -15 -15 l-15 -25 6 30 c16 75
184 617 344 1110 27 83 117 364 200 625 83 261 187 585 230 720 43 135 99 313
125 395 53 169 71 209 112 246 78 73 133 75 343 13z m6680 -149 c0 -14 -3 -25
-7 -25 -31 1 -44 50 -13 50 15 0 20 -6 20 -25z m-6644 -129 c7 -17 -43 -214
-62 -243 -28 -43 -134 -38 -134 7 0 18 4 20 38 14 50 -8 56 0 88 122 14 54 28
102 31 107 7 12 33 8 39 -7z m2714 -45 c0 -4 -11 -6 -25 -3 -14 2 -25 6 -25 8
0 2 11 4 25 4 14 0 25 -4 25 -9z m247 -23 c-3 -8 -6 -5 -6 6 -1 11 2 17 5 13
3 -3 4 -12 1 -19z m-3941 -141 c0 -26 4 -50 7 -54 4 -3 7 -21 7 -39 l0 -32
-81 3 c-44 1 -84 6 -89 11 -4 5 -6 44 -3 87 l6 78 76 -3 76 -3 1 -48z m3994
23 c0 -5 -8 -10 -17 -10 -15 0 -16 2 -3 10 19 12 20 12 20 0z m78 -7 c-10 -2
-28 -2 -40 0 -13 2 -5 4 17 4 22 1 32 -1 23 -4z m315 0 c-51 -2 -136 -2 -190
0 -54 1 -12 3 92 3 105 0 149 -2 98 -3z m-4933 -93 c0 -16 -7 -20 -30 -20 -49
0 -37 37 13 39 11 1 17 -6 17 -19z m1456 -257 c21 -82 -70 -127 -111 -55 -16
27 -16 26 -12 -30 4 -62 1 -65 -46 -45 l-28 12 26 34 c32 44 32 54 0 39 -53
-24 -102 32 -76 88 6 13 32 39 58 57 26 17 61 44 77 59 l31 27 38 -82 c21 -45
40 -92 43 -104z m510 113 c34 -35 93 -107 133 -160 40 -52 77 -99 84 -103 7
-4 39 -8 72 -9 76 -2 228 -45 321 -90 l72 -35 73 32 c125 54 273 109 293 109
11 0 28 -7 38 -17 21 -19 24 -99 7 -173 -9 -40 -73 -196 -133 -326 -20 -42
-23 -61 -19 -115 3 -41 -1 -85 -11 -124 -9 -32 -16 -64 -16 -71 0 -6 43 -32
95 -57 52 -25 95 -49 95 -52 0 -3 -3 -4 -7 -2 -20 12 -205 88 -207 85 -2 -2
-8 -18 -15 -35 -13 -33 -34 -43 -46 -22 -4 5 6 21 21 35 21 21 24 28 13 34
-20 13 -142 39 -239 51 -46 5 -87 13 -90 16 -9 10 161 -7 230 -22 36 -8 77
-18 91 -21 26 -6 27 -4 38 58 16 93 14 121 -14 190 -29 72 -26 85 7 30 l24
-40 18 46 c10 26 40 94 66 152 51 110 90 244 90 304 0 29 -4 37 -23 41 -28 7
-227 -63 -319 -112 -61 -33 -69 -35 -85 -22 -10 8 -31 21 -47 28 -34 14 -39
10 -71 -78 -11 -30 -25 -56 -31 -58 -7 -2 -2 23 12 62 29 81 30 102 3 110 -25
8 -33 1 -48 -47 -13 -39 -66 -118 -79 -118 -16 0 -34 100 -27 150 5 34 3 50
-4 50 -6 0 -11 -6 -11 -12 0 -9 -3 -8 -10 2 -8 13 -9 13 -14 0 -2 -8 -9 -30
-15 -49 -6 -19 -11 -47 -11 -62 0 -16 -5 -29 -11 -29 -9 0 -10 24 -6 83 5 72
4 80 -9 63 -12 -17 -14 -17 -20 -3 -4 12 -13 15 -30 11 -17 -4 -31 0 -44 11
-15 13 -20 15 -20 5 0 -25 -21 5 -75 106 -80 148 -151 228 -180 204 -31 -26
-67 -170 -76 -305 -4 -71 -9 -149 -11 -173 -3 -46 -7 -45 55 -25 31 10 18 -12
-23 -35 -21 -12 -53 -42 -70 -66 -34 -50 -37 -61 -15 -53 8 4 17 2 20 -3 3 -5
-5 -12 -17 -16 -13 -4 -33 -14 -46 -22 -18 -12 -20 -17 -10 -30 7 -8 13 -21
13 -29 0 -9 26 -23 70 -37 59 -19 251 -101 264 -112 2 -2 2 -7 -1 -10 -3 -3
-29 6 -58 21 -117 59 -290 110 -290 86 0 -7 7 -14 15 -17 19 -8 20 -24 1 -24
-19 0 -28 -14 -20 -33 3 -10 29 -16 82 -21 92 -8 212 -32 225 -45 5 -5 -20 -3
-55 5 -34 7 -102 16 -151 20 l-87 7 18 -44 19 -44 114 2 114 1 -85 -8 c-47 -4
-95 -12 -108 -17 -23 -9 -22 -11 42 -91 36 -45 66 -87 66 -92 0 -6 -9 -10 -20
-10 -13 0 -20 6 -18 14 3 15 -101 131 -110 122 -3 -3 0 -24 7 -47 14 -48 72
-114 145 -166 98 -70 106 -81 105 -137 l-1 -51 -10 53 c-8 41 -16 57 -41 75
-115 83 -142 108 -184 165 -44 60 -47 62 -55 41 -12 -30 1 -109 16 -103 6 2
36 -21 66 -52 l55 -57 -40 23 c-22 13 -34 17 -27 10 6 -8 12 -21 12 -30 -1
-10 -9 -6 -26 14 -15 17 -24 37 -21 47 4 13 0 19 -11 19 -9 0 -33 19 -54 41
l-38 41 24 29 c14 16 28 39 31 51 4 13 14 31 22 40 26 29 7 37 -55 23 -31 -8
-76 -21 -99 -29 -24 -8 -43 -13 -43 -11 0 9 77 44 132 59 l55 17 -26 50 -26
51 -75 -6 c-41 -4 -88 -9 -105 -12 -21 -5 -27 -3 -20 4 6 6 53 18 105 27 52 9
97 18 99 21 2 2 -1 15 -7 29 -7 14 -12 36 -12 49 0 22 -5 24 -107 35 -59 7
-110 15 -113 18 -3 3 45 3 107 -1 105 -7 112 -6 122 13 6 11 11 28 11 39 0 10
25 59 55 107 42 66 55 97 55 124 -2 77 19 261 39 344 29 124 64 185 106 187 5
0 37 -29 71 -64z m9 -176 c12 -19 -12 -10 -31 11 -19 22 -19 22 3 10 12 -6 25
-16 28 -21z m18 -77 c20 -13 37 -26 37 -29 0 -5 -88 43 -105 58 -17 15 27 -4
68 -29z m-56 -109 c-3 -3 -12 -4 -19 -1 -8 3 -5 6 6 6 11 1 17 -2 13 -5z m213
-151 c0 -48 -11 -50 -25 -4 -5 16 -4 21 4 17 7 -4 11 1 11 13 0 12 2 21 5 21
3 0 5 -21 5 -47z m653 30 c-7 -2 -19 -2 -25 0 -7 3 -2 5 12 5 14 0 19 -2 13
-5z m-506 -55 c-3 -8 -6 -5 -6 6 -1 11 2 17 5 13 3 -3 4 -12 1 -19z m6284 -18
c12 -7 19 -21 19 -40 l0 -30 -68 0 c-38 0 -103 -3 -145 -6 l-77 -7 0 47 0 46
126 0 c69 0 134 -5 145 -10z m-6482 -39 c65 -46 116 -164 81 -186 -6 -3 -10 4
-10 17 0 36 -44 122 -75 146 -15 12 -43 24 -64 27 -20 4 -54 10 -76 15 -34 8
-29 9 35 7 61 -2 81 -7 109 -26z m463 -3 c-7 -7 -12 -8 -12 -2 0 14 12 26 19
19 2 -3 -1 -11 -7 -17z m74 -17 c-3 -4 -18 -11 -33 -14 -16 -3 -37 -9 -48 -13
-14 -5 -17 -4 -10 4 6 6 26 15 45 20 46 13 52 14 46 3z m-695 -69 c22 -68 69
-112 121 -112 33 0 58 -9 58 -22 0 -15 -80 1 -124 26 -40 22 -86 95 -86 136 0
31 17 16 31 -28z m114 38 c4 -6 1 -17 -5 -26 -14 -16 -40 -2 -40 22 0 16 36
19 45 4z m-13 -95 c9 -4 27 -1 38 5 22 12 44 5 35 -11 -8 -12 -62 -12 -86 1
-10 6 -26 24 -34 40 -23 44 -17 50 7 8 12 -21 30 -40 40 -43z m-2739 24 c-16
-16 -205 -17 -211 -1 -3 9 24 12 109 12 80 0 110 -3 102 -11z m617 -41 l0 -48
123 -1 c67 -1 134 0 150 1 15 1 27 -3 27 -9 0 -19 -12 -22 -158 -35 -23 -2
-45 0 -48 5 -9 15 -21 10 -27 -10 -7 -29 -127 -39 -127 -10 0 5 -5 9 -11 9 -5
0 -7 -4 -4 -10 4 -6 -10 -10 -34 -10 -26 0 -41 5 -42 13 0 10 -2 10 -6 0 -6
-16 -80 -17 -85 -2 -5 16 -144 18 -141 2 2 -8 -8 -13 -27 -13 -28 0 -30 3 -30
35 l0 35 190 0 190 0 0 43 c0 51 1 52 34 52 24 0 26 -3 26 -47z m434 44 c6
-10 -30 -9 -40 1 -4 4 2 7 14 7 11 0 23 -4 26 -8z m2292 -7 c57 -23 97 -56 85
-68 -7 -7 -25 -2 -60 16 -104 57 -181 44 -242 -41 -31 -43 -34 -45 -37 -23 -5
30 43 90 89 113 42 21 118 23 165 3z m-2149 -1 c-3 -3 -12 -4 -19 -1 -8 3 -5
6 6 6 11 1 17 -2 13 -5z m6921 -36 c3 -24 0 -28 -22 -28 -22 0 -26 4 -26 31 0
26 3 30 23 27 16 -2 23 -11 25 -30z m-4896 -63 c-4 -37 -2 -45 12 -45 20 0 37
40 29 69 -4 17 -1 21 19 21 30 0 48 -17 48 -45 0 -26 -25 -51 -67 -66 -67 -23
-121 43 -76 93 29 32 41 22 35 -27z m-3432 5 c0 -5 -11 -10 -25 -10 -14 0 -25
5 -25 10 0 6 11 10 25 10 14 0 25 -4 25 -10z m196 -15 c4 -8 12 -15 20 -15 17
0 18 -16 3 -26 -6 -3 -15 -1 -19 6 -4 7 -15 10 -24 7 -11 -4 -16 -1 -16 12 0
31 26 43 36 16z m3408 -14 c8 -13 -31 -59 -64 -76 -58 -30 -220 -9 -208 26 5
14 11 13 62 -6 54 -21 111 -8 159 35 34 32 43 35 51 21z m-3037 -27 c-3 -3
-12 -4 -19 -1 -8 3 -5 6 6 6 11 1 17 -2 13 -5z m2586 -61 c-7 -2 -21 -2 -30 0
-10 3 -4 5 12 5 17 0 24 -2 18 -5z m27 -26 c0 -2 -9 -12 -20 -22 -19 -18 -20
-17 -20 3 0 15 6 22 20 22 11 0 20 -2 20 -3z m-3500 -51 c0 -28 -16 -33 -105
-31 -58 0 -60 1 -63 28 l-3 27 85 0 c84 0 86 -1 86 -24z m3747 -76 c168 -56
396 -178 444 -237 17 -21 13 -19 -89 50 -92 61 -208 119 -342 169 -98 37 -122
48 -107 48 3 0 46 -13 94 -30z m36 -90 c40 -28 84 -60 99 -72 l26 -20 34 26
c19 14 40 26 46 26 20 0 13 -19 -10 -31 -37 -20 -51 -38 -40 -52 5 -7 30 -38
55 -70 26 -32 47 -61 47 -65 0 -8 -82 81 -106 116 -21 29 -31 28 -121 -8 -106
-42 -112 -37 -14 13 l83 42 -48 43 c-27 23 -73 54 -101 69 -29 14 -53 27 -53
29 0 16 43 -4 103 -46z m-963 6 c0 -8 -5 -16 -12 -18 -8 -3 -4 -26 14 -79 63
-177 150 -528 174 -704 12 -91 -4 -42 -36 110 -53 247 -167 636 -191 651 -5 3
-44 0 -87 -6 -132 -20 -124 -10 -80 -95 21 -40 49 -103 63 -140 36 -95 100
-353 115 -464 11 -78 17 -98 38 -115 13 -12 35 -43 48 -71 14 -27 19 -42 11
-33 -8 10 -18 14 -22 10 -5 -4 -5 -2 -2 4 4 7 0 14 -8 18 -8 3 -15 14 -15 25
0 13 -12 27 -30 36 -16 9 -30 19 -30 23 0 4 -16 84 -35 177 -53 256 -103 411
-174 532 -42 73 -22 71 -213 21 l-118 -30 -5 -37 c-4 -20 -10 -45 -15 -56 -11
-23 -29 -91 -135 -485 -42 -157 -78 -286 -80 -288 -1 -2 -3 21 -2 50 0 52 175
776 200 827 10 21 32 31 148 62 136 37 385 86 447 88 21 1 32 -4 32 -13z m510
-36 c0 -5 -2 -10 -4 -10 -3 0 -8 5 -11 10 -3 6 -1 10 4 10 6 0 11 -4 11 -10z
m40 -30 c8 -5 11 -10 5 -10 -5 0 -17 5 -25 10 -8 5 -10 10 -5 10 6 0 17 -5 25
-10z m3620 -10 c0 -5 -7 -10 -16 -10 -8 0 -12 5 -9 10 3 6 10 10 16 10 5 0 9
-4 9 -10z m-803 -22 c-3 -8 -6 -5 -6 6 -1 11 2 17 5 13 3 -3 4 -12 1 -19z
m133 7 c0 -8 -9 -15 -20 -15 -20 0 -26 11 -13 23 12 13 33 7 33 -8z m206 1
c24 -18 17 -26 -18 -19 -16 3 -28 12 -28 19 0 18 21 18 46 0z m-3851 -17 c4
-6 4 -13 0 -17 -3 -3 -10 0 -14 7 -7 11 -9 11 -13 0 -3 -8 -9 -11 -13 -7 -10
9 3 28 20 28 8 0 17 -5 20 -11z m69 -15 c3 -8 1 -24 -4 -36 -8 -22 -9 -22 -9
5 -1 34 -17 35 -25 2 -4 -14 -11 -25 -16 -25 -13 0 -13 1 5 43 15 37 37 42 49
11z m1156 -53 c0 -20 -21 -41 -43 -45 -8 -1 -21 -7 -28 -13 -29 -23 -198 -63
-269 -63 -5 0 -23 -21 -40 -46 -41 -58 -52 -50 -14 11 31 49 36 51 129 59 69
6 181 41 209 65 10 9 22 26 27 39 10 26 29 21 29 -7z m-1366 -46 c-11 -54 -67
-146 -109 -181 -53 -43 -136 -80 -197 -88 -37 -4 -48 -2 -48 8 0 9 19 18 53
25 153 33 236 117 272 276 6 29 7 29 21 10 9 -13 12 -30 8 -50z m435 -33 c37
-32 100 -79 139 -103 64 -39 91 -69 61 -69 -37 0 -279 191 -279 220 0 17 10
11 79 -48z m-545 16 c-23 -73 -103 -138 -166 -138 -14 0 1 10 37 25 61 25 95
57 116 107 14 34 23 37 13 6z m1464 -29 c-12 -51 -12 -51 -147 -95 -48 -16
-78 -21 -84 -15 -18 18 1 38 50 50 71 17 149 58 168 87 22 34 25 28 13 -27z
m5910 24 c3 -23 3 -23 -147 -23 l-151 0 0 25 0 26 148 -3 c144 -3 147 -3 150
-25z m-7466 -25 c-17 -18 -34 -29 -38 -26 -3 4 9 20 28 36 43 39 51 31 10 -10z
m957 2 c0 -10 -3 -8 -9 5 -12 27 -12 43 0 25 5 -8 9 -22 9 -30z m-489 10 c0
-5 -9 -10 -19 -10 -52 0 -65 -26 -31 -60 13 -13 15 -20 7 -20 -12 0 -47 59
-47 80 0 10 23 17 63 19 15 0 27 -3 27 -9z m360 -31 c0 -6 -4 -7 -10 -4 -5 3
-10 11 -10 16 0 6 5 7 10 4 6 -3 10 -11 10 -16z m-596 -66 c-76 -130 -199
-210 -349 -228 -79 -9 -60 8 25 23 132 24 272 127 322 239 15 33 23 42 26 30
2 -10 -9 -39 -24 -64z m1466 -4 c19 -13 69 -55 110 -94 41 -38 113 -101 158
-140 l84 -70 -6 -47 c-3 -26 -25 -117 -50 -203 -26 -85 -46 -162 -46 -171 0
-8 -4 -13 -9 -10 -5 4 -7 -4 -3 -16 3 -13 1 -19 -6 -15 -5 4 -13 1 -15 -5 -14
-34 10 76 54 246 27 103 49 191 49 195 0 8 -367 334 -382 340 -14 5 -96 -77
-181 -179 -88 -107 -87 -105 -87 -98 0 11 131 180 187 241 45 49 52 62 47 85
l-7 27 34 -31 c19 -17 50 -42 69 -55z m4110 59 c0 -7 173 -9 510 -6 508 4 510
4 510 -17 0 -20 -2 -20 -820 -23 l-820 -3 0 25 c0 20 6 25 33 29 76 9 587 4
587 -5z m-4504 -47 c-3 -5 -19 -11 -35 -13 -21 -3 -28 -1 -24 9 3 7 18 13 35
13 16 0 27 -4 24 -9z m-16 -41 c-8 -5 -28 -9 -45 -9 l-30 1 30 8 c17 4 37 8
45 9 13 1 13 0 0 -9z m-1003 -62 c-4 -18 -16 -73 -28 -123 -11 -49 -22 -100
-24 -113 -2 -13 -43 -65 -92 -115 -48 -51 -120 -139 -158 -197 -74 -111 -113
-146 -71 -63 41 81 147 223 226 300 l74 74 23 97 c34 142 43 172 50 172 3 0 3
-15 0 -32z m220 17 c1 -5 -11 -10 -27 -11 -29 -1 -37 6 -23 20 10 10 46 3 50
-9z m959 -14 c-17 -27 -281 -79 -301 -60 -16 16 11 26 88 33 40 3 104 14 142
25 73 19 81 19 71 2z m163 -8 c-12 -30 -95 -286 -134 -417 l-25 -79 36 -80
c50 -115 28 -125 -26 -11 l-42 88 57 185 c63 206 75 237 111 299 28 48 39 55
23 15z m-580 -30 c32 -34 33 -38 28 -94 -4 -49 -2 -59 12 -64 57 -18 85 -98
56 -159 -36 -76 -137 -88 -188 -22 -5 6 -6 -17 -2 -51 3 -35 3 -63 -1 -63 -18
0 -130 33 -138 40 -5 5 4 24 23 45 17 20 31 39 31 44 0 5 -20 6 -44 4 -52 -6
-80 7 -106 50 -26 42 -25 86 3 128 28 41 63 61 98 53 24 -4 27 -1 33 29 7 36
46 80 86 96 38 14 71 3 109 -36z m-838 0 c-18 -31 -41 -57 -45 -52 -3 3 6 19
20 37 27 35 41 43 25 15z m317 -15 c17 -17 15 -47 -3 -54 -23 -9 -62 4 -69 23
-13 32 46 57 72 31z m1262 -29 c0 -6 -7 -39 -16 -73 -34 -131 5 -290 92 -366
20 -17 33 -34 30 -37 -13 -13 -88 74 -119 137 -30 61 -32 71 -32 175 0 71 5
122 14 143 13 31 31 43 31 21z m-114 -167 c1 -155 30 -236 118 -329 16 -18 25
-33 20 -33 -17 0 -95 101 -120 155 -13 28 -29 75 -35 105 -15 72 -6 220 14
220 1 0 2 -53 3 -118z m-403 101 c-7 -2 -21 -2 -30 0 -10 3 -4 5 12 5 17 0 24
-2 18 -5z m5053 -20 c-10 -10 -19 5 -10 18 6 11 8 11 12 0 2 -7 1 -15 -2 -18z
m-5798 -7 c3 -12 -1 -17 -10 -14 -7 3 -15 13 -16 22 -3 12 1 17 10 14 7 -3 15
-13 16 -22z m-508 4 c-8 -5 -37 -17 -65 -26 -27 -9 -54 -20 -59 -25 -14 -12
-29 -11 -21 1 3 6 0 10 -7 11 -7 0 16 9 51 19 35 11 66 22 69 25 3 3 15 5 26
5 17 0 18 -2 6 -10z m1827 -22 c-3 -8 -6 -5 -6 6 -1 11 2 17 5 13 3 -3 4 -12
1 -19z m-1817 -23 c0 -2 -15 -12 -32 -20 l-33 -16 24 21 c22 19 41 26 41 15z
m1904 -26 c29 -34 30 -39 15 -91 -5 -22 -16 -38 -24 -38 -17 0 -20 26 -5 35
17 11 11 62 -11 86 l-20 24 5 -25 c3 -14 9 -36 12 -49 5 -17 4 -22 -4 -17 -11
6 -32 68 -32 94 0 23 38 12 64 -19z m-504 11 c0 -5 -7 -10 -16 -10 -8 0 -12 5
-9 10 3 6 10 10 16 10 5 0 9 -4 9 -10z m-885 -19 c-22 -5 -30 -12 -28 -26 1
-20 1 -20 -12 -1 -20 26 -10 36 33 35 36 -1 37 -1 7 -8z m1299 -42 c-8 -13
-24 -1 -24 18 0 13 3 13 15 3 8 -7 12 -16 9 -21z m-397 -6 c-3 -3 -11 -2 -17
2 -9 6 -9 10 1 16 14 8 27 -7 16 -18z m-858 -18 c3 -17 2 -17 -13 -3 -19 20
-21 31 -3 26 6 -3 14 -13 16 -23z m682 -22 c-10 -27 -24 -72 -31 -100 -6 -29
-16 -53 -20 -53 -13 0 33 163 53 188 17 22 17 13 -2 -35z m131 -13 c6 0 9 -3
6 -6 -12 -12 -48 17 -48 39 1 20 2 20 16 -5 8 -16 20 -28 26 -28z m-1062 15
c0 -8 -7 -15 -15 -15 -9 0 -12 6 -9 15 4 8 10 15 15 15 5 0 9 -7 9 -15z m1530
-45 c0 -13 -1 -13 -10 0 -5 8 -10 22 -10 30 0 13 1 13 10 0 5 -8 10 -22 10
-30z m-1308 -16 c-4 -22 -6 -24 -14 -10 -9 16 -3 36 11 36 5 0 6 -12 3 -26z
m-323 -15 c-9 -5 -15 -4 -18 2 -2 6 3 15 10 20 9 5 15 4 18 -2 2 -6 -3 -15
-10 -20z m181 3 c0 -5 -23 -19 -50 -32 -60 -28 -143 -112 -170 -172 -11 -24
-20 -37 -20 -30 0 21 48 109 81 146 16 19 58 49 91 66 68 33 68 33 68 22z
m1495 -40 c-6 -6 -45 28 -45 39 0 5 11 -1 25 -13 14 -12 23 -24 20 -26z m-771
-39 c-27 -43 -97 -124 -102 -119 -2 3 21 36 52 75 57 72 83 94 50 44z m-1274
2 c19 -7 28 -14 20 -14 -8 0 -28 6 -45 14 -39 17 -21 18 25 0z m282 -7 c-7 -7
-12 -8 -12 -2 0 14 12 26 19 19 2 -3 -1 -11 -7 -17z m278 -36 c0 -14 -8 -19
-30 -19 -47 0 -100 -61 -100 -115 0 -14 -3 -19 -10 -12 -29 29 47 146 102 157
13 2 26 5 31 6 4 0 7 -7 7 -17z m443 -23 c128 -35 172 -52 117 -45 -52 7 -91
16 -125 26 -33 11 -116 33 -127 34 -3 1 -10 4 -14 9 -15 15 41 6 149 -24z
m865 -89 l44 -55 -48 50 c-48 51 -84 102 -84 120 0 6 10 -6 22 -25 12 -19 42
-60 66 -90z m-1243 70 c3 -5 -1 -10 -9 -10 -9 0 -16 5 -16 10 0 6 4 10 9 10 6
0 13 -4 16 -10z m723 -27 c25 -32 75 -118 59 -103 -23 23 -105 140 -98 140 5
0 23 -17 39 -37z m-1118 17 c0 -5 -5 -10 -11 -10 -5 0 -7 5 -4 10 3 6 8 10 11
10 2 0 4 -4 4 -10z m1308 -35 c-1 -1 -14 -6 -27 -10 -16 -5 -21 -4 -17 4 4 6
15 11 24 12 11 0 12 2 4 6 -6 2 -9 9 -6 15 4 7 10 4 16 -6 6 -10 8 -19 6 -21z
m-988 -24 c0 -5 -9 -11 -20 -14 -13 -3 -20 0 -20 9 0 8 9 14 20 14 11 0 20 -4
20 -9z m73 -8 c-7 -2 -19 -2 -25 0 -7 3 -2 5 12 5 14 0 19 -2 13 -5z m1172
-13 c-3 -5 -11 -10 -16 -10 -6 0 -7 5 -4 10 3 6 11 10 16 10 6 0 7 -4 4 -10z
m5875 -115 c0 -33 -2 -35 -35 -35 -32 0 -35 2 -35 29 0 26 4 30 33 34 17 2 33
5 35 5 1 1 2 -14 2 -33z m-6429 -12 c-12 -20 -14 -14 -5 12 4 9 9 14 11 11 3
-2 0 -13 -6 -23z m1703 -269 c240 -42 320 -153 342 -476 7 -100 -7 -250 -32
-335 -22 -77 -84 -167 -136 -196 -101 -58 -130 -62 -425 -61 -205 1 -276 4
-288 14 -13 11 -15 76 -15 520 0 459 2 509 16 521 34 29 400 37 538 13z
m-1099 -18 l60 -12 -2 -59 c-3 -91 2 -87 -120 -79 -133 8 -217 -6 -252 -41
-44 -44 -31 -171 22 -205 16 -11 61 -16 165 -18 l142 -4 0 66 0 66 100 0 100
0 0 -65 0 -65 80 0 80 0 0 -75 0 -75 -81 0 -81 0 4 -124 c5 -161 14 -176 98
-176 32 0 61 -4 64 -8 3 -5 8 -38 12 -75 l7 -65 -49 -9 c-27 -4 -80 -8 -119
-7 -83 1 -128 20 -157 70 l-20 34 -36 -31 c-71 -63 -111 -74 -267 -74 -125 0
-145 2 -190 23 -93 43 -139 107 -153 209 -17 134 20 230 110 286 l50 31 -23
16 c-72 46 -105 119 -102 226 3 132 60 199 203 240 58 16 277 17 355 0z
m-2273 -368 c3 -340 4 -366 23 -402 31 -61 64 -80 149 -84 92 -5 144 18 172
75 17 35 19 69 22 406 l3 367 115 0 115 0 -3 -382 c-4 -425 -6 -437 -73 -530
-25 -34 -52 -55 -102 -80 l-68 -33 -160 0 c-145 0 -166 3 -220 24 -77 30 -146
99 -169 167 -29 89 -36 185 -36 512 l0 322 114 0 115 0 3 -362z m4385 106 c96
-27 177 -109 208 -209 36 -117 29 -301 -16 -406 -25 -57 -90 -122 -149 -148
-74 -32 -186 -44 -293 -31 -154 18 -235 67 -287 173 -78 159 -57 397 46 532
34 46 132 93 214 105 81 11 209 4 277 -16z m2247 4 c53 -16 109 -73 130 -133
13 -41 16 -96 16 -346 0 -261 -2 -298 -16 -303 -30 -11 -229 -7 -242 6 -9 9
-12 82 -12 267 0 223 -2 257 -17 273 -28 31 -140 19 -190 -21 -20 -15 -21 -29
-27 -264 -3 -137 -9 -253 -12 -258 -8 -14 -238 -11 -252 3 -14 14 -17 734 -4
756 6 9 36 12 112 10 l104 -3 9 -37 9 -38 65 36 c35 20 83 42 106 50 54 16
168 17 221 2z m-1726 -16 c13 -13 32 -82 61 -218 24 -109 46 -212 50 -229 6
-26 9 -22 25 45 68 291 90 373 106 393 17 21 26 22 140 22 114 0 123 -1 140
-22 15 -19 51 -152 111 -413 l13 -55 8 45 c30 155 102 427 115 437 11 9 47 11
127 6 61 -3 113 -7 115 -10 7 -5 -17 -116 -44 -203 -13 -41 -51 -169 -85 -285
-67 -227 -80 -259 -109 -275 -31 -16 -233 -13 -257 5 -30 20 -38 45 -89 259
-24 104 -46 191 -49 193 -2 2 -9 -27 -16 -64 -17 -94 -78 -341 -90 -364 -6
-10 -19 -23 -30 -29 -26 -14 -223 -13 -254 1 -30 14 -37 33 -107 264 -101 338
-138 476 -133 490 7 18 30 22 142 24 77 1 95 -2 110 -17z m-3526 -21 c58 -28
103 -82 131 -158 28 -79 31 -308 5 -394 -25 -79 -92 -152 -160 -175 -72 -24
-192 -15 -275 20 -34 14 -65 26 -68 26 -3 0 -5 -72 -5 -160 l0 -160 -110 0
-110 0 0 505 0 505 89 0 89 0 6 -45 c8 -48 16 -54 36 -29 19 22 94 64 143 80
63 20 172 13 229 -15z m5783 -1103 c-4 -18 -13 -51 -21 -73 -18 -51 -18 -64 0
-39 11 14 10 -1 -5 -66 -23 -99 -85 -307 -99 -332 -6 -10 -10 -23 -10 -29 0
-6 -23 -70 -51 -142 -72 -186 -124 -324 -144 -382 -9 -27 -21 -59 -25 -70 -76
-179 -103 -267 -82 -264 21 4 31 -3 26 -16 -4 -10 -13 -13 -25 -10 -16 5 -23
-3 -40 -40 -12 -26 -17 -51 -12 -55 4 -5 26 -10 48 -12 26 -2 40 -8 40 -17 0
-10 -15 -14 -54 -15 l-55 -1 -17 -45 c-183 -469 -204 -525 -201 -525 1 0 -11
-31 -27 -70 -17 -38 -26 -73 -22 -78 4 -4 68 -8 142 -10 l134 -2 6 -37 6 -38
-156 0 c-86 0 -161 -4 -167 -8 -6 -4 -25 -45 -41 -92 -17 -47 -52 -143 -78
-215 -25 -71 -53 -152 -62 -180 -8 -27 -19 -55 -23 -60 -8 -9 -37 -86 -43
-110 -1 -5 -5 -12 -8 -15 -4 -3 -19 -30 -34 -60 -38 -77 -68 -115 -122 -151
-85 -59 -208 -70 -296 -29 -21 10 -52 22 -70 26 -18 3 -57 18 -87 32 -107 48
-122 54 -183 72 -92 27 -245 81 -305 107 -28 13 -91 37 -140 52 -48 16 -139
50 -202 76 -131 53 -212 83 -255 95 -49 14 -218 80 -240 94 -11 7 -69 30 -130
51 -60 21 -126 46 -145 55 -19 10 -51 21 -70 25 -19 4 -53 15 -75 25 -71 32
-169 69 -195 72 -28 4 -183 79 -188 90 -2 5 -12 8 -22 8 -11 0 -23 6 -27 14
-4 7 -22 21 -40 30 -33 17 -92 66 -78 66 4 0 1 7 -6 16 -11 14 -9 19 11 35 47
38 63 39 83 7 21 -36 124 -86 287 -141 41 -14 136 -49 210 -77 74 -28 171 -64
215 -79 44 -16 175 -65 290 -109 116 -43 284 -107 375 -141 91 -34 192 -73
225 -86 33 -13 177 -67 320 -120 143 -53 301 -112 350 -132 204 -80 267 -90
326 -50 51 34 80 95 182 377 102 282 398 1081 418 1130 6 14 30 79 54 145 24
66 64 176 90 245 26 69 62 168 80 220 18 52 54 149 80 215 26 66 56 147 67
180 11 33 28 78 38 100 9 22 36 92 60 155 23 63 53 137 66 164 13 28 24 58 24
67 0 10 4 21 10 24 5 3 28 46 51 96 24 51 48 89 56 89 11 0 13 -8 8 -32z
m-3015 -10 c0 -29 -87 -278 -340 -978 -70 -195 -130 -364 -131 -374 -4 -22 19
-32 261 -117 161 -57 192 -72 184 -94 -3 -8 -150 -115 -325 -237 -176 -123
-381 -267 -457 -321 -139 -99 -175 -118 -193 -100 -6 6 -46 129 -90 274 -178
590 -249 830 -249 844 0 8 8 15 18 15 9 0 113 -32 229 -72 117 -39 214 -70
216 -67 2 2 30 78 61 169 77 219 298 829 348 958 24 63 45 102 54 102 8 0 14
-3 14 -8 0 -13 -145 -438 -245 -717 -53 -148 -119 -333 -146 -410 -26 -77 -54
-144 -61 -149 -9 -5 -84 15 -209 58 -108 36 -200 66 -206 66 -6 0 9 -64 32
-142 206 -685 258 -854 264 -861 7 -7 165 100 546 368 77 54 179 126 227 159
48 34 88 64 88 68 0 8 -44 25 -255 98 -82 29 -156 58 -163 64 -10 10 12 80
112 357 350 968 384 1059 403 1059 7 0 13 -6 13 -12z m836 -148 c-22 -10 -43
-17 -49 -13 -5 3 5 12 24 18 53 20 67 17 25 -5z m-624 -140 c-26 -80 -53 -146
-60 -147 -7 -2 -12 3 -12 11 0 21 22 78 28 72 3 -3 17 29 32 72 43 121 52 143
56 140 2 -2 -18 -69 -44 -148z m308 119 c15 -28 5 -23 -15 7 -9 15 -12 23 -6
20 6 -4 16 -16 21 -27z m190 -19 c19 0 33 -71 21 -109 -20 -67 -127 -295 -140
-299 -18 -6 -10 18 61 175 43 96 58 140 55 160 -9 45 -16 110 -11 91 3 -10 9
-18 14 -18z m667 8 c32 -12 53 -23 47 -25 -6 -2 -36 7 -65 21 -68 31 -58 33
18 4z m-982 -62 c53 -69 69 -124 70 -231 0 -88 -3 -107 -27 -157 -38 -81 -51
-72 -21 14 48 138 19 288 -76 391 -22 24 -38 47 -34 50 9 9 59 -29 88 -67z
m778 52 c-74 -99 -110 -139 -149 -172 -40 -33 -45 -36 -39 -16 4 12 48 62 99
111 87 84 110 104 89 77z m639 -20 c-6 -6 -15 -7 -22 -3 -8 5 -6 11 7 20 20
15 32 0 15 -17z m92 -23 c-19 -41 -42 -56 -100 -65 -30 -5 -41 -3 -41 7 0 8
14 13 40 13 31 0 46 7 73 34 19 19 34 42 35 53 0 10 3 13 5 6 3 -7 -2 -28 -12
-48z m116 27 c0 -5 -7 -17 -15 -28 -14 -18 -14 -17 -4 9 12 27 19 34 19 19z
m284 -30 c-35 -54 -163 -208 -205 -247 -24 -22 -71 -60 -105 -83 -58 -41 -61
-44 -76 -110 -22 -89 -35 -122 -49 -122 -15 0 -8 41 21 136 19 63 26 75 67
105 103 73 166 134 254 244 50 63 96 112 101 109 5 -3 2 -18 -8 -32z m-1825
-12 c10 -22 21 -37 24 -33 6 5 12 -37 8 -59 0 -5 4 -8 10 -8 6 0 9 -9 6 -20
-3 -11 -1 -23 4 -26 14 -8 9 -172 -5 -183 -8 -7 -10 11 -8 66 5 88 -10 175
-43 250 -13 29 -22 53 -19 53 3 0 13 -18 23 -40z m922 22 c-7 -2 -18 1 -23 6
-8 8 -4 9 13 5 13 -4 18 -8 10 -11z m-64 -44 c55 -21 107 -45 113 -53 7 -8 9
-15 6 -15 -4 0 -70 23 -147 52 -89 33 -135 54 -127 60 15 9 23 7 155 -44z
m373 2 c0 -5 -2 -10 -4 -10 -3 0 -8 5 -11 10 -3 6 -1 10 4 10 6 0 11 -4 11
-10z m271 -8 c-16 -31 -87 -90 -139 -116 -56 -28 -129 -45 -118 -27 4 6 14 11
23 11 26 0 152 71 196 111 48 44 51 46 38 21z m-1711 -86 c0 -6 9 -22 20 -36
11 -14 19 -36 19 -50 0 -24 0 -24 -13 5 -14 33 -46 65 -46 46 0 -6 11 -29 25
-51 27 -42 30 -56 16 -64 -5 -3 -23 21 -40 54 -30 55 -31 64 -21 96 10 28 14
33 26 23 8 -6 14 -17 14 -23z m104 -81 c4 -27 0 -19 -14 25 -10 36 -19 67 -19
70 2 15 28 -62 33 -95z m1943 72 c51 -19 127 -77 116 -88 -7 -7 -30 3 -68 30
-32 23 -63 41 -70 41 -6 0 -20 7 -31 15 -19 14 -19 14 1 14 11 0 34 -6 52 -12z
m-1372 -19 c-4 -13 -7 -44 -6 -71 2 -59 -6 -74 -88 -163 -76 -82 -100 -111
-123 -146 -11 -17 -44 -35 -102 -57 -93 -35 -115 -37 -93 -7 8 11 31 20 62 24
46 5 54 11 137 96 110 113 177 208 184 261 9 69 14 85 25 85 7 0 9 -8 4 -22z
m378 -15 c83 -197 87 -209 87 -265 0 -46 -5 -62 -26 -87 -52 -62 -148 -48
-182 27 l-17 37 -35 -17 c-54 -27 -87 -23 -126 16 -55 55 -42 133 32 195 39
31 219 130 240 131 6 0 18 -17 27 -37z m360 -3 c7 -29 -8 -25 -21 5 -16 34
-15 40 2 26 8 -6 16 -21 19 -31z m-935 -25 c-6 -14 -13 -23 -15 -21 -5 5 15
46 22 46 3 0 -1 -11 -7 -25z m872 -25 c0 -13 -1 -13 -10 0 -5 8 -10 22 -10 30
0 13 1 13 10 0 5 -8 10 -22 10 -30z m-4065 -5 c6 -2 -11 -4 -37 -4 -27 -1 -48
3 -48 7 0 7 62 5 85 -3z m4025 -7 c0 -6 -6 -5 -15 2 -8 7 -15 14 -15 16 0 2 7
1 15 -2 8 -4 15 -11 15 -16z m-1342 -67 c128 -171 171 -232 220 -311 28 -46
52 -90 52 -96 0 -6 6 -17 14 -23 11 -9 15 -9 19 1 2 7 4 1 4 -15 1 -38 -12
-25 -96 96 -38 56 -114 165 -169 242 -59 82 -97 145 -94 154 3 9 1 12 -6 7 -6
-3 -13 -3 -16 2 -3 5 1 9 9 9 7 0 36 -30 63 -66z m1500 -72 c16 -161 51 -335
93 -455 17 -49 36 -106 42 -127 13 -44 -5 -45 207 16 l145 42 38 95 c21 52 58
150 84 217 25 68 49 120 54 118 11 -7 22 32 13 46 -4 7 -3 9 4 5 6 -3 14 3 17
15 4 11 9 18 11 16 3 -2 -25 -85 -62 -183 -37 -99 -81 -217 -98 -264 -24 -64
-38 -88 -57 -97 -23 -11 -295 -85 -569 -154 -63 -15 -126 -33 -139 -39 -29
-13 -36 -8 -21 19 6 12 21 21 34 21 13 0 43 7 66 15 23 8 94 27 156 42 102 24
112 28 100 42 -29 32 -97 257 -122 401 -32 187 -43 355 -23 348 10 -3 18 -41
27 -139z m517 123 c-3 -3 -11 0 -18 7 -9 10 -8 11 6 5 10 -3 15 -9 12 -12z
m-413 -14 c-7 -7 -12 -8 -12 -2 0 14 12 26 19 19 2 -3 -1 -11 -7 -17z m-1036
-26 c-4 -3 -14 2 -24 12 -16 18 -16 18 6 6 13 -6 21 -14 18 -18z m1004 10 c0
-5 -7 -9 -15 -9 -8 0 -12 4 -9 9 3 4 9 8 15 8 5 0 9 -4 9 -8z m-1114 -34 c-18
-26 -22 -17 -5 14 6 11 13 17 16 15 3 -3 -2 -16 -11 -29z m-329 -10 c-3 -8 -6
-5 -6 6 -1 11 2 17 5 13 3 -3 4 -12 1 -19z m1271 -37 c-3 -17 -5 -16 -23 7
-15 21 -15 24 -2 13 15 -12 17 -10 18 15 1 24 2 25 6 7 2 -13 3 -32 1 -42z
m628 44 c25 -19 15 -19 -27 0 -25 10 -29 14 -13 15 11 0 29 -7 40 -15z m-1496
-25 c0 -5 -2 -10 -4 -10 -3 0 -8 5 -11 10 -3 6 -1 10 4 10 6 0 11 -4 11 -10z
m1600 -10 c12 -8 9 -10 -13 -10 -16 0 -26 4 -22 10 8 12 16 12 35 0z m-5440
-30 c0 -20 -7 -20 -655 -20 l-655 0 0 -25 0 -25 -265 0 -265 0 0 25 0 25 -335
0 c-328 0 -335 0 -335 20 0 20 7 20 1255 20 1248 0 1255 0 1255 -20z m3784 -9
c-2 -3 -12 3 -22 13 -16 17 -16 18 5 5 12 -7 20 -15 17 -18z m1476 -1 c0 -11
-41 -34 -80 -44 -14 -4 -2 6 25 23 58 35 55 34 55 21z m-545 -20 c6 -1 -1 -5
-15 -9 -27 -8 -50 -4 -50 9 0 8 31 7 65 0z m670 -35 c-5 -3 -44 -11 -85 -20
-41 -9 -82 -18 -90 -20 -30 -6 -145 -79 -187 -118 -24 -22 -46 -38 -48 -35 -3
3 20 28 50 57 59 56 161 110 225 118 22 3 40 10 40 14 0 5 24 9 53 8 28 0 48
-2 42 -4z m-1657 -17 c-6 -18 -28 -21 -28 -4 0 9 7 16 16 16 9 0 14 -5 12 -12z
m-6731 -4 c-3 -3 -12 -4 -19 -1 -8 3 -5 6 6 6 11 1 17 -2 13 -5z m7627 -149
c14 -77 43 -201 65 -275 22 -74 38 -136 36 -138 -1 -1 -21 53 -45 120 -53 153
-118 471 -91 443 5 -6 21 -73 35 -150z m-1132 113 c-7 -7 -12 -8 -12 -2 0 14
12 26 19 19 2 -3 -1 -11 -7 -17z m1228 11 c12 -8 9 -9 -12 -5 -20 5 -28 2 -31
-11 -4 -14 -5 -12 -6 5 -1 24 23 30 49 11z m-1150 -44 c-7 -9 -15 -13 -18 -10
-3 2 1 11 8 20 7 9 15 13 18 10 3 -2 -1 -11 -8 -20z m486 10 c17 -13 5 -14
-115 -15 -74 0 -132 3 -128 6 25 25 213 32 243 9z m-6476 -5 c13 -8 12 -10 -2
-10 -10 0 -18 -4 -18 -10 0 -6 -32 -10 -75 -10 -68 0 -75 2 -75 20 0 18 7 20
78 20 42 0 84 -5 92 -10z m7830 -4 c0 -10 -23 -15 -87 -19 -144 -8 -257 -73
-336 -194 -45 -69 -63 -63 -26 9 43 86 158 172 270 202 72 20 179 21 179 2z
m-8256 -11 c4 -11 -2 -15 -24 -15 -22 0 -28 4 -24 15 4 8 14 15 24 15 10 0 20
-7 24 -15z m7572 -15 c5 0 16 -5 24 -10 12 -7 11 -13 -10 -34 -24 -26 -70 -36
-70 -15 0 6 6 9 14 6 8 -3 22 1 33 9 17 13 17 15 -9 35 -16 11 -28 25 -28 31
0 6 8 4 18 -5 10 -10 23 -17 28 -17z m-5956 -48 c0 -19 -5 -23 -22 -20 -15 2
-24 11 -26 25 -3 19 1 23 22 21 20 -2 26 -8 26 -26z m5290 -7 c0 -6 -21 -36
-46 -67 l-45 -58 -62 0 c-84 0 -189 -24 -244 -55 -51 -28 -66 -26 -37 6 39 43
115 65 248 73 43 3 79 6 80 8 1 2 21 27 45 56 39 48 65 63 61 37z m346 -33
c66 -43 186 -168 214 -222 26 -53 35 -93 10 -47 -30 54 -163 191 -237 244 -58
41 -77 63 -55 63 5 0 35 -17 68 -38z m957 23 c1 -5 -25 -13 -58 -17 -147 -16
-246 -101 -276 -234 -8 -36 -17 -54 -27 -54 -12 0 -13 9 -9 45 20 145 174 278
315 272 29 -1 53 -6 55 -12z m-1383 2 c0 -2 -12 -14 -26 -28 -26 -23 -26 -23
-20 -2 6 17 2 22 -16 26 -13 2 -4 5 20 6 23 0 42 0 42 -2z m-160 -18 c-30 -4
-82 -17 -114 -29 -33 -11 -61 -18 -64 -15 -12 11 142 54 193 53 36 0 34 -1
-15 -9z m954 -69 c-5 -5 -25 -12 -44 -16 -33 -5 -34 -5 -16 10 22 17 77 23 60
6z m481 -13 c-65 -25 -104 -58 -129 -109 -15 -31 -26 -44 -26 -32 0 40 53 106
105 130 28 13 57 24 65 23 8 0 1 -6 -15 -12z m-925 -46 c0 -21 3 -54 6 -72 5
-23 3 -31 -4 -24 -15 15 -27 135 -13 135 6 0 11 -17 11 -39z m-771 -78 c9 -8
27 -10 41 -7 38 10 110 21 110 18 0 -2 -22 -15 -50 -29 -27 -14 -50 -29 -50
-34 0 -9 121 -126 165 -159 l30 -23 -42 20 c-22 11 -43 24 -45 29 -1 4 -33 36
-70 70 l-67 61 -37 -13 c-21 -7 -40 -18 -42 -24 -4 -14 75 -65 198 -126 94
-47 141 -77 90 -58 -66 25 -151 67 -232 113 -49 28 -93 47 -96 43 -4 -5 -18
-21 -31 -36 l-24 -28 64 -29 c35 -16 116 -43 179 -61 137 -37 172 -51 115 -43
-65 8 -219 50 -302 82 -42 17 -77 29 -78 28 -11 -19 -35 -118 -35 -143 0 -19
-6 -37 -15 -41 -12 -7 -13 -18 -6 -58 9 -48 8 -51 -19 -76 -16 -15 -43 -55
-60 -90 -18 -35 -48 -90 -67 -121 -36 -61 -79 -174 -85 -223 -3 -29 -1 -30 39
-33 58 -4 150 22 280 79 101 44 114 48 140 37 15 -6 36 -21 45 -32 16 -20 17
-20 39 9 12 17 45 51 72 77 27 26 63 66 79 90 21 30 27 36 23 18 -15 -50 -46
-99 -87 -139 -24 -22 -51 -53 -61 -70 -17 -29 -17 -30 4 -42 18 -9 24 -8 32 7
16 28 109 125 115 119 3 -2 -1 -12 -9 -21 -18 -22 -20 -82 -2 -88 7 -3 13 -20
13 -40 0 -25 5 -35 20 -39 17 -4 20 0 20 28 0 32 25 105 36 105 3 0 4 -29 1
-64 -3 -39 0 -69 6 -75 6 -6 32 -11 58 -11 42 0 49 -3 72 -37 14 -21 38 -65
53 -98 38 -84 108 -191 139 -211 24 -16 27 -16 45 1 30 27 56 108 75 235 9 63
23 131 31 150 7 19 16 57 20 84 6 47 6 48 -17 41 -46 -15 -89 -23 -89 -16 1 3
22 16 49 28 66 31 194 159 172 172 -9 6 -9 15 -1 35 5 15 10 29 10 31 0 2 -30
13 -67 26 -69 22 -254 109 -280 130 -35 29 5 17 109 -34 108 -53 202 -87 239
-87 15 0 16 5 8 32 -12 42 -12 41 6 34 8 -3 15 -1 15 4 0 11 -12 15 -136 40
-127 25 -247 63 -218 68 12 1 48 -6 80 -17 61 -20 224 -52 259 -50 18 1 18 2
2 6 -14 4 -17 11 -12 33 4 16 2 31 -5 35 -6 3 -70 8 -143 10 -95 2 -142 8
-167 20 l-35 16 43 -6 c100 -13 192 -17 235 -11 l47 7 -21 42 c-28 53 -87 133
-129 172 -55 51 -56 72 -2 26 29 -23 55 -47 58 -53 3 -5 12 -1 20 9 12 16 13
15 14 -14 0 -23 11 -45 36 -73 20 -22 33 -40 30 -40 -4 0 0 -13 9 -30 19 -36
41 -38 140 -11 92 26 60 -1 -36 -29 l-67 -20 16 -51 16 -50 66 6 c36 3 85 8
110 11 25 3 42 3 38 -1 -3 -4 -50 -13 -103 -20 -54 -8 -99 -16 -102 -18 -2 -3
0 -26 4 -53 l8 -49 81 -16 c93 -19 128 -31 69 -25 -22 3 -67 8 -100 12 l-60 6
-34 -76 c-30 -69 -98 -156 -122 -156 -5 0 -9 -23 -9 -51 0 -28 -7 -72 -15 -98
-8 -25 -21 -89 -28 -141 -13 -89 -59 -225 -93 -277 -22 -35 -58 -29 -102 16
-45 46 -128 178 -173 275 -32 68 -32 68 -68 63 -98 -12 -314 64 -392 140 l-36
34 -97 -40 c-54 -22 -127 -50 -163 -61 -67 -21 -167 -26 -192 -11 -33 21 22
209 94 317 18 28 47 78 63 111 17 33 42 73 55 89 18 21 24 37 20 56 -8 44 15
189 37 225 11 19 20 36 20 38 0 2 -28 20 -62 40 -65 39 -116 75 -103 75 4 0
19 -8 33 -19 32 -22 128 -71 139 -71 4 0 25 17 47 36 l38 36 -66 60 c-36 33
-71 70 -77 81 -6 12 17 -5 52 -39 97 -91 91 -89 141 -63 24 12 45 23 47 25 2
2 -10 20 -26 41 -30 38 -53 76 -53 88 0 4 17 -15 37 -42 20 -26 44 -54 52 -60z
m828 74 c4 -7 37 -36 73 -66 36 -29 76 -72 89 -95 12 -22 29 -48 36 -56 8 -8
17 -27 20 -42 10 -40 -12 -36 -29 5 -34 82 -113 178 -202 244 -21 16 -25 22
-12 22 9 1 21 -5 25 -12z m-120 -19 c-3 -8 -6 -5 -6 6 -1 11 2 17 5 13 3 -3 4
-12 1 -19z m513 8 c-44 -24 -73 -30 -68 -15 3 8 18 17 34 20 48 11 60 9 34 -5z
m480 -14 c-14 -9 -35 -27 -47 -39 -13 -12 -23 -19 -23 -14 0 9 38 45 65 59 30
17 33 13 5 -6z m-1415 -23 c-22 -4 -53 -8 -70 -7 l-30 0 30 8 c17 4 48 8 70 8
l40 0 -40 -9z m646 -194 c21 -33 39 -67 39 -75 0 -8 -13 8 -29 36 -17 28 -56
77 -88 109 l-58 58 48 -34 c27 -19 65 -59 88 -94z m349 99 c15 -37 11 -65 -4
-32 -9 22 -15 25 -24 16 -7 -7 -12 -25 -12 -40 0 -15 -4 -28 -10 -28 -5 0 -10
11 -10 24 0 14 5 28 10 31 6 3 10 11 10 17 0 6 -10 3 -21 -8 -16 -14 -21 -15
-17 -4 2 8 20 20 38 26 22 7 28 13 19 17 -10 4 -10 6 -1 6 7 1 17 -11 22 -25z
m-763 -29 c40 -17 73 -43 73 -57 0 -4 -18 3 -39 18 -22 14 -58 28 -80 31 -22
3 -38 9 -35 14 8 13 40 11 81 -6z m1999 -201 c23 -6 34 -34 14 -34 -5 0 -10 6
-10 13 0 9 -2 9 -8 0 -6 -9 -49 -12 -155 -12 -139 1 -166 6 -152 29 6 10 273
13 311 4z m94 -14 c0 -21 -19 -28 -21 -7 0 9 -2 9 -6 -1 -5 -13 -23 -7 -23 8
0 7 17 15 43 19 4 0 7 -8 7 -19z m-2760 -42 c0 -6 -7 -5 -15 2 -8 7 -15 17
-15 22 0 6 7 5 15 -2 8 -7 15 -17 15 -22z m338 -54 c23 -14 42 -29 42 -34 0
-14 -4 -13 -43 10 -18 11 -54 23 -79 26 -39 5 -54 2 -96 -22 -58 -32 -82 -24
-37 12 61 50 137 53 213 8z m3362 0 c0 -17 -22 -14 -28 4 -2 7 3 12 12 12 9 0
16 -7 16 -16z m-3122 -19 c3 -3 3 -7 0 -10 -7 -7 -68 15 -68 25 0 8 58 -4 68
-15z m-285 -6 c61 -32 66 -59 16 -84 -45 -24 -52 -20 -45 26 5 31 3 40 -6 37
-11 -4 -24 -25 -55 -86 -4 -8 -44 20 -53 39 -9 16 -6 25 19 49 32 33 83 40
124 19z m2104 -31 c-3 -7 -5 -2 -5 12 0 14 2 19 5 13 2 -7 2 -19 0 -25z m1073
13 l0 -21 -420 0 c-393 0 -420 1 -420 18 0 16 28 17 420 21 l420 3 0 -21z
m-1000 -57 c0 -20 -5 -24 -28 -24 -36 0 -40 5 -35 33 4 19 10 23 34 19 23 -3
29 -9 29 -28z m-2081 -21 c-77 -83 -219 -83 -324 1 -49 39 -21 41 42 2 99 -60
189 -57 261 9 41 38 57 28 21 -12z m3293 22 c-4 -24 -7 -25 -78 -25 -72 0 -74
1 -74 25 0 25 1 25 79 25 78 0 78 0 73 -25z m-2915 -56 c24 -12 48 -29 53 -40
9 -16 6 -15 -25 5 -19 13 -53 27 -75 31 -22 4 -42 11 -46 16 -10 17 49 9 93
-12z m38 -83 c8 -12 16 -37 17 -56 3 -32 1 -35 -27 -38 -49 -4 -58 8 -40 52
16 39 14 66 -4 66 -6 0 -13 -11 -17 -25 -9 -34 -33 -53 -45 -34 -13 21 -11 77
4 82 21 7 97 -24 112 -47z m-143 -59 c24 -34 130 -87 173 -87 17 0 37 -5 45
-11 16 -11 -65 -7 -122 5 -75 17 -149 98 -147 162 l1 29 15 -35 c8 -19 24 -48
35 -63z m-407 44 c-16 -15 -65 -25 -65 -13 0 6 10 13 23 15 41 8 51 7 42 -2z
m-34 -41 c-13 -11 -28 -20 -35 -20 -6 0 3 9 19 20 38 25 47 25 16 0z m85 -37
c-8 -16 -22 -37 -30 -48 -15 -19 -16 -18 -5 10 9 27 36 65 46 65 2 0 -3 -12
-11 -27z m3064 -93 l0 -60 -40 0 c-26 0 -40 5 -40 13 0 7 -18 23 -40 37 -28
17 -40 32 -40 47 0 22 4 23 80 23 l80 0 0 -60z m-2741 8 c15 -43 8 -45 -12 -3
-9 19 -13 35 -8 35 5 0 14 -14 20 -32z m2411 -23 c0 -25 -4 -45 -10 -45 -11 0
-14 49 -4 74 10 26 14 18 14 -29z m-2443 -2 c-3 -10 -5 -4 -5 12 0 17 2 24 5
18 2 -7 2 -21 0 -30z m2683 -33 c0 -5 -4 -10 -10 -10 -5 0 -10 5 -10 10 0 6 5
10 10 10 6 0 10 -4 10 -10z m-2530 -195 c13 -14 21 -25 18 -25 -2 0 -15 11
-28 25 -13 14 -21 25 -18 25 2 0 15 -11 28 -25z m171 -49 c-6 -36 -16 -76 -22
-88 -9 -22 -9 -22 -4 2 3 14 8 50 11 80 7 64 12 85 20 77 4 -3 1 -35 -5 -71z
m-121 -82 c23 -26 22 -25 -17 5 -24 18 -43 35 -43 37 0 10 36 -16 60 -42z
m668 -75 c54 -141 34 -229 -53 -229 -32 0 -56 19 -69 54 -5 15 -9 17 -18 8 -7
-7 -27 -12 -45 -12 -39 0 -83 37 -83 70 0 28 22 70 52 97 31 29 161 103 173
100 6 -2 25 -41 43 -88z m952 51 l0 -40 -60 0 -60 0 0 33 c0 19 3 37 7 40 3 4
30 7 60 7 l53 0 0 -40z m60 0 c0 -22 -4 -40 -10 -40 -5 0 -10 18 -10 40 0 22
5 40 10 40 6 0 10 -18 10 -40z m-8030 -35 c0 -24 -5 -35 -15 -35 -10 0 -15 11
-15 35 0 24 5 35 15 35 10 0 15 -11 15 -35z m430 -81 c0 -8 -4 -14 -10 -14 -5
0 -10 9 -10 21 0 11 5 17 10 14 6 -3 10 -13 10 -21z m440 12 c0 -3 -4 -8 -10
-11 -5 -3 -10 -1 -10 4 0 6 5 11 10 11 6 0 10 -2 10 -4z m-870 -77 c0 -38 -24
-35 -28 4 -2 19 1 27 12 27 11 0 16 -10 16 -31z m3628 -78 c28 0 52 -5 52 -9
0 -7 -889 -8 -900 -1 -5 4 721 15 770 13 14 -1 49 -2 78 -3z m-1060 -8 c-21
-2 -57 -2 -80 0 -24 2 -7 4 37 4 44 0 63 -2 43 -4z m90 0 c-10 -2 -26 -2 -35
0 -10 3 -2 5 17 5 19 0 27 -2 18 -5z m95 0 c-13 -2 -35 -2 -50 0 -16 2 -5 4
22 4 28 0 40 -2 28 -4z m4150 -122 c10 -10 17 -28 15 -41 l-3 -22 -27 21 c-35
28 -81 37 -95 19 -12 -14 -65 -152 -77 -200 -5 -21 -3 -28 8 -28 19 0 28 -14
21 -32 -9 -22 -125 20 -125 44 0 12 8 18 23 18 20 0 27 12 55 98 17 53 39 107
47 119 31 44 116 46 158 4z m-2033 9 c0 -5 -5 -10 -11 -10 -5 0 -7 5 -4 10 3
6 8 10 11 10 2 0 4 -4 4 -10z m-1200 -10 c0 -5 -5 -10 -11 -10 -5 0 -7 5 -4
10 3 6 8 10 11 10 2 0 4 -4 4 -10z m1558 -122 c-2 -18 -11 -24 -35 -26 -30 -3
-33 -1 -33 22 0 23 4 26 36 26 31 0 35 -3 32 -22z m-3793 -502 c17 -1 -12 -4
-62 -4 -51 -1 -93 1 -93 6 0 6 83 6 155 -2z m182 -3 c-20 -2 -52 -2 -70 0 -17
2 0 4 38 4 39 0 53 -2 32 -4z m4093 -98 c0 -8 -7 -15 -15 -15 -8 0 -15 7 -15
15 0 8 7 15 15 15 8 0 15 -7 15 -15z m-693 -170 c0 -8 -4 -15 -9 -15 -4 0 -8
7 -8 15 0 8 4 15 8 15 5 0 9 -7 9 -15z m3743 -80 l0 -25 -500 1 -500 0 0 25 0
24 500 0 500 0 0 -25z m-5240 -76 c0 -36 -2 -39 -27 -39 -22 0 -25 2 -13 10
10 6 11 10 3 10 -8 0 -13 13 -13 34 0 30 2 33 25 28 22 -4 25 -10 25 -43z
m5690 -29 l0 -60 -219 0 -219 0 -4 46 c-2 25 -1 50 2 55 3 4 93 10 200 12 107
1 205 3 218 5 21 2 22 -2 22 -58z m-8493 -100 c0 -35 -3 -40 -24 -40 -15 0
-23 6 -23 18 0 36 13 62 30 62 13 0 17 -9 17 -40z"/>
<path d="M1843 8550 c-1 -11 4 -20 12 -20 8 0 13 9 12 20 -1 11 -6 20 -12 20
-6 0 -11 -9 -12 -20z"/>
<path d="M3811 7931 c-20 -15 -22 -21 -12 -39 20 -38 36 -28 46 26 6 37 0 39
-34 13z"/>
<path d="M3973 6841 c-86 -29 -110 -41 -77 -41 25 0 154 46 168 60 14 14 2 12
-91 -19z"/>
<path d="M3453 6666 c-23 -20 -28 -32 -28 -70 l0 -45 -37 5 c-57 10 -86 -2
-105 -40 -18 -39 -12 -77 17 -106 24 -24 78 -26 106 -5 10 8 25 15 33 15 21 0
6 -57 -25 -97 -29 -39 -30 -36 12 -51 l32 -10 4 73 c3 71 15 106 26 75 3 -8
20 -30 38 -47 61 -62 134 -33 134 54 0 59 -29 89 -82 84 -22 -3 -23 17 -3 43
22 29 19 89 -6 120 -27 34 -77 35 -116 2z"/>
<path d="M3005 6650 c-9 -15 43 -36 56 -23 6 6 8 16 5 22 -9 14 -53 14 -61 1z"/>
<path d="M5138 5452 l-58 -3 0 -314 0 -315 103 0 c123 0 162 15 191 73 39 81
40 412 1 487 -30 59 -98 79 -237 72z"/>
<path d="M3952 5066 c-44 -24 -62 -65 -62 -143 0 -66 3 -76 29 -105 27 -30 34
-33 103 -36 92 -5 143 8 202 53 l46 36 0 104 0 105 -147 0 c-101 -1 -155 -5
-171 -14z"/>
<path d="M6124 5182 c-46 -29 -59 -71 -59 -192 0 -127 17 -167 81 -189 35 -12
46 -12 84 0 65 21 83 52 88 155 6 104 -10 183 -42 213 -33 31 -112 38 -152 13z"/>
<path d="M3099 5196 c-20 -7 -53 -23 -73 -35 l-36 -23 0 -159 0 -160 38 -16
c57 -24 166 -29 197 -9 46 30 59 71 60 186 0 133 -20 195 -71 216 -41 17 -68
17 -115 0z"/>
<path d="M6291 3854 c0 -11 3 -14 6 -6 3 7 2 16 -1 19 -3 4 -6 -2 -5 -13z"/>
<path d="M7335 3807 c-152 -80 -195 -121 -195 -185 0 -24 9 -42 29 -63 34 -34
64 -37 109 -9 18 11 37 20 42 20 5 0 18 -20 29 -44 21 -49 45 -66 88 -66 76 1
104 87 64 201 -19 54 -79 189 -84 189 -1 0 -38 -20 -82 -43z"/>
<path d="M8900 2650 c0 -5 5 -10 10 -10 6 0 10 5 10 10 0 6 -4 10 -10 10 -5 0
-10 -4 -10 -10z"/>
<path d="M7810 1894 c-75 -46 -107 -79 -115 -115 -12 -53 40 -89 91 -63 36 19
39 18 49 -18 9 -29 15 -33 47 -36 45 -4 68 24 68 83 -1 50 -50 179 -70 182 -8
1 -40 -14 -70 -33z"/>
</g>
</svg>
