<?xml version="1.0" standalone="no"?>
<!DOCTYPE svg PUBLIC "-//W3C//DTD SVG 20010904//EN"
 "http://www.w3.org/TR/2001/REC-SVG-20010904/DTD/svg10.dtd">
<svg version="1.0" xmlns="http://www.w3.org/2000/svg"
 width="334.000000pt" height="447.000000pt" viewBox="0 0 334.000000 447.000000"
 preserveAspectRatio="xMidYMid meet">

<g transform="translate(0.000000,447.000000) scale(0.100000,-0.100000)"
fill="#000000" stroke="none">
<path d="M2724 4356 c-62 -15 -189 -75 -247 -115 -197 -136 -324 -228 -364
-262 -53 -47 -52 -47 -257 -9 -108 20 -131 21 -255 12 -129 -10 -199 -23 -319
-58 -52 -15 -106 -12 -118 7 -23 37 -459 315 -569 362 -52 22 -151 47 -187 47
-82 0 -145 -62 -184 -182 -27 -80 -28 -91 -28 -293 -1 -220 10 -334 49 -550
61 -343 63 -313 -31 -516 -90 -195 -148 -343 -164 -421 -13 -64 -3 -100 47
-164 35 -46 37 -66 14 -110 -10 -19 -17 -44 -14 -54 7 -28 52 -70 75 -70 28 0
60 -19 88 -53 l26 -30 44 21 45 21 3 -21 c3 -16 9 -18 28 -14 23 6 24 5 12
-16 -7 -13 -17 -26 -21 -29 -5 -3 -2 -9 7 -12 9 -4 16 -10 16 -15 0 -11 -52
-3 -60 8 -6 9 -26 13 -54 11 -23 -1 -17 -10 10 -15 51 -10 124 -40 124 -50 0
-7 10 -22 23 -34 l23 -22 99 50 c128 65 223 104 365 152 112 38 113 39 57 34
-34 -3 -55 -1 -52 5 4 5 -1 9 -10 9 -38 0 -5 26 43 34 29 5 52 13 52 18 0 5
-8 7 -17 4 -10 -3 -65 -12 -123 -21 -58 -9 -123 -20 -145 -25 -22 -5 -74 -16
-115 -25 -41 -9 -86 -20 -100 -25 -72 -24 -67 -20 -46 -36 11 -8 15 -14 9 -14
-6 0 -16 7 -23 15 -7 8 -16 12 -21 9 -5 -3 -9 -1 -9 3 0 22 221 81 400 108 65
10 111 22 120 32 16 16 2 16 -165 -2 -33 -4 -43 -2 -30 3 11 5 79 15 150 22
72 7 148 16 170 20 35 7 31 8 -32 9 -111 2 -128 14 -67 50 35 21 40 46 6 34
-9 -3 -13 -2 -9 2 11 12 74 7 125 -10 50 -18 62 -18 62 -5 0 6 -7 10 -17 10
-9 0 -39 6 -67 14 -28 8 -116 24 -196 36 -80 12 -183 28 -230 36 -47 8 -148
19 -225 24 -139 11 -191 17 -184 25 17 16 536 -43 706 -81 l72 -16 158 67 c87
37 170 79 186 93 15 14 27 21 27 14 0 -6 -10 -18 -21 -26 -21 -14 -20 -15 17
-18 41 -3 39 1 64 -96 9 -34 18 -46 49 -62 46 -23 131 -126 131 -158 0 -40
-26 -87 -66 -119 -51 -40 -132 -80 -197 -98 l-52 -14 47 0 c42 -1 157 39 230
79 22 12 111 13 123 1 21 -18 164 -60 225 -65 56 -5 60 -4 30 5 -173 53 -260
98 -260 134 0 13 -5 27 -12 31 -8 5 -9 0 -5 -17 6 -23 5 -23 -8 -5 -8 11 -15
33 -15 48 0 36 60 119 129 180 46 40 52 50 61 101 5 32 12 62 15 67 18 30 244
-26 358 -87 l48 -27 -63 -19 c-60 -18 -93 -35 -85 -44 2 -2 24 6 48 17 24 11
58 20 76 20 17 0 33 4 35 8 7 17 439 123 618 151 177 29 216 33 204 21 -6 -6
-51 -15 -100 -21 -117 -13 -248 -40 -469 -96 -190 -47 -248 -68 -242 -87 4
-11 34 -29 72 -42 18 -6 17 -8 -10 -15 -16 -5 -69 -11 -118 -15 -48 -3 -85 -9
-83 -13 3 -4 42 -3 88 2 57 6 89 5 101 -2 9 -6 52 -16 95 -22 42 -6 120 -20
172 -31 52 -11 122 -26 155 -33 39 -8 50 -13 31 -14 -16 0 -79 10 -140 23
-177 39 -290 52 -327 37 -21 -9 -22 -10 -4 -11 11 0 72 -7 135 -14 103 -13
156 -22 308 -56 79 -18 93 -14 157 46 33 31 79 68 103 84 49 32 41 40 -41 40
-29 0 -106 7 -172 15 -66 8 -192 15 -280 16 -96 1 -148 4 -130 9 57 14 240 10
415 -10 96 -11 191 -20 210 -20 32 1 33 2 17 14 -10 8 -14 16 -10 19 5 3 19
27 33 54 50 101 99 162 69 87 -6 -16 -15 -58 -20 -93 -11 -75 -33 -116 -70
-131 -15 -7 -52 -39 -82 -73 -30 -34 -59 -66 -64 -71 -4 -5 -1 -7 8 -4 9 4 22
2 30 -3 11 -7 10 -9 -6 -9 -11 0 6 -10 39 -21 l58 -20 53 48 c29 26 53 51 54
56 1 4 28 33 62 65 l60 59 -36 32 -36 31 46 93 46 93 -22 60 c-12 32 -35 82
-50 109 -15 28 -44 88 -65 135 -20 47 -70 143 -112 213 l-75 128 7 72 c3 40
11 113 16 162 55 488 56 643 6 839 -32 126 -60 181 -105 211 -45 30 -120 38
-187 21z m100 -127 c14 -17 26 -36 26 -42 0 -7 -9 3 -20 21 -12 19 -28 32 -40
32 -41 0 -228 -133 -365 -260 -220 -203 -269 -242 -335 -265 -55 -19 -54 3 1
39 22 15 73 57 113 94 109 102 243 211 327 269 69 47 243 143 261 143 3 0 18
-14 32 -31z m-2334 -47 c157 -74 351 -203 571 -379 81 -65 119 -85 134 -73 15
12 163 50 190 49 12 -1 5 -6 -17 -13 -38 -11 -60 -26 -40 -26 7 0 12 -9 12
-21 0 -18 -5 -21 -32 -17 -18 3 -40 8 -49 12 -13 6 -16 2 -12 -17 4 -19 0 -26
-17 -30 -32 -8 -64 7 -158 76 -283 208 -343 252 -395 295 -32 26 -70 54 -85
62 -15 8 -28 18 -30 23 -2 4 -13 7 -25 7 -24 0 -62 20 -39 20 24 0 3 17 -30
24 -43 9 -88 29 -88 40 0 12 45 -1 110 -32z m-126 -24 c-3 -18 -10 -59 -16
-91 -7 -37 -9 -132 -5 -265 6 -208 12 -254 67 -501 11 -51 19 -96 17 -98 -6
-5 -43 150 -67 282 -11 61 -25 132 -30 158 -13 62 -12 368 1 427 5 25 12 62
16 83 3 20 9 37 14 37 5 0 6 -15 3 -32z m2481 -79 c8 -30 14 -81 13 -114 0
-33 -3 -48 -5 -33 -2 14 -11 32 -20 39 -13 11 -17 10 -28 -4 -16 -23 -32 -21
-45 3 -9 17 -5 30 24 76 30 48 33 60 24 80 -11 24 -28 33 -28 14 0 -5 -5 -10
-12 -10 -6 0 -3 9 7 20 18 20 19 20 37 2 11 -10 25 -43 33 -73z m-2425 50 c0
-5 -4 -9 -10 -9 -5 0 -10 7 -10 16 0 8 5 12 10 9 6 -3 10 -10 10 -16z m46 -36
c-7 -7 -26 7 -26 19 0 6 6 6 15 -2 9 -7 13 -15 11 -17z m2411 -5 c-3 -7 -5 -2
-5 12 0 14 2 19 5 13 2 -7 2 -19 0 -25z m-2570 -10 c-3 -8 -6 -5 -6 6 -1 11 2
17 5 13 3 -3 4 -12 1 -19z m89 -38 c0 -33 -4 -60 -9 -60 -6 0 -8 -50 -5 -132
5 -99 3 -122 -4 -88 -18 85 -10 340 10 340 4 0 7 -27 8 -60z m224 25 c19 -14
30 -25 24 -25 -10 1 -73 50 -63 50 3 0 20 -11 39 -25z m-330 -110 l-7 -90 -2
77 c-1 66 6 116 14 106 1 -2 -1 -43 -5 -93z m2199 52 c-2 -1 -13 -9 -24 -17
-19 -14 -19 -14 -6 3 7 9 18 17 24 17 6 0 8 -1 6 -3z m-2009 -85 c0 -5 -7 -15
-15 -22 -13 -11 -14 -10 -10 2 8 19 -20 44 -30 27 -4 -6 -4 -14 1 -18 11 -8
12 -42 1 -59 -5 -7 -6 -28 -3 -45 6 -32 -6 -67 -17 -50 -8 12 -3 132 5 127 3
-2 4 5 1 16 -3 11 -9 23 -14 26 -16 10 -9 43 13 58 20 15 23 14 45 -19 13 -19
23 -38 23 -43z m295 18 c3 -6 -1 -7 -9 -4 -18 7 -21 14 -7 14 6 0 13 -4 16
-10z m-227 -90 c22 -22 34 -40 27 -40 -8 0 -23 12 -34 26 -11 14 -24 23 -28
21 -5 -3 -9 3 -9 14 0 10 1 19 2 19 1 0 20 -18 42 -40z m2315 -25 c-3 -16 -10
-34 -16 -40 -7 -7 -8 -4 -3 8 3 10 6 35 6 55 0 27 3 33 9 22 6 -8 7 -28 4 -45z
m-993 -26 c10 -6 1 -8 -27 -9 -40 0 -43 -2 -43 -28 0 -15 -4 -32 -9 -37 -5 -6
-11 -28 -14 -50 -3 -35 -4 -34 -5 13 -1 29 -9 66 -17 82 -13 25 -22 30 -53 31
l-37 2 40 7 c45 8 143 1 165 -11z m-262 4 c-10 -2 -26 -2 -35 0 -10 3 -2 5 17
5 19 0 27 -2 18 -5z m-68 -9 c0 -10 -44 -43 -57 -44 -7 0 -10 -7 -7 -17 4 -10
-3 -3 -15 15 -11 17 -29 32 -38 33 -16 0 -15 2 2 9 23 10 115 13 115 4z m499
-26 c24 -9 24 -9 5 -27 -23 -22 -64 -37 -64 -22 0 5 -16 15 -35 21 -23 8 -35
18 -35 30 0 17 6 18 53 13 28 -3 63 -10 76 -15z m-1461 -10 c-9 -7 -17 -18
-19 -25 -3 -8 -9 -9 -19 -3 -13 8 -12 11 5 24 25 19 57 23 33 4z m92 -38 c8
-5 11 -10 5 -10 -5 0 -17 5 -25 10 -8 5 -10 10 -5 10 6 0 17 -5 25 -10z m2153
-10 c-3 -11 -7 -20 -9 -20 -2 0 -4 9 -4 20 0 11 4 20 9 20 5 0 7 -9 4 -20z
m-2523 0 c0 -5 -5 -10 -11 -10 -5 0 -7 5 -4 10 3 6 8 10 11 10 2 0 4 -4 4 -10z
m97 -32 c-3 -8 -6 -5 -6 6 -1 11 2 17 5 13 3 -3 4 -12 1 -19z m2023 -18 c-71
-44 -105 -55 -47 -15 47 31 89 54 102 55 6 0 -19 -18 -55 -40z m436 -6 c-4
-20 -10 -34 -13 -30 -3 3 -2 21 1 42 4 20 10 34 13 30 3 -3 2 -21 -1 -42z
m-2279 20 c-3 -3 -12 -4 -19 -1 -8 3 -5 6 6 6 11 1 17 -2 13 -5z m86 -11 c-7
-2 -19 -2 -25 0 -7 3 -2 5 12 5 14 0 19 -2 13 -5z m-93 -31 c-7 -3 -19 3 -28
13 -16 15 -15 16 12 4 15 -7 23 -15 16 -17z m220 19 c0 -5 -9 -7 -20 -4 -11 3
-20 7 -20 9 0 2 9 4 20 4 11 0 20 -4 20 -9z m2017 -13 c-3 -8 -6 -5 -6 6 -1
11 2 17 5 13 3 -3 4 -12 1 -19z m-170 -14 c-3 -3 -12 -4 -19 -1 -8 3 -5 6 6 6
11 1 17 -2 13 -5z m-1934 -21 c-7 -2 -21 -2 -30 0 -10 3 -4 5 12 5 17 0 24 -2
18 -5z m360 -18 c10 -14 14 -25 10 -25 -4 0 -16 12 -26 25 -10 14 -14 25 -10
25 4 0 16 -12 26 -25z m1784 -7 c-3 -7 -5 -2 -5 12 0 14 2 19 5 13 2 -7 2 -19
0 -25z m-422 7 c-33 -7 -73 -18 -88 -24 -36 -14 -54 -14 -41 -1 17 17 96 38
144 38 l45 0 -60 -13z m-1415 -20 c31 -18 7 -18 -40 0 -31 12 -32 14 -10 14
14 0 36 -6 50 -14z m-425 -16 c13 -6 6 -7 -20 -3 -22 4 -47 11 -55 16 -18 11
44 0 75 -13z m1944 17 c-14 -13 -131 -67 -136 -62 -3 3 23 19 58 35 58 27 89
37 78 27z m-1719 -16 c20 -6 21 -8 5 -8 -11 0 -33 4 -50 8 -27 7 -27 8 -5 8
14 0 36 -4 50 -8z m285 -10 c3 -5 -1 -10 -10 -10 -9 0 -13 5 -10 10 3 6 8 10
10 10 2 0 7 -4 10 -10z m-150 -14 c41 -12 44 -14 20 -15 -16 0 -52 6 -80 14
-41 11 -44 14 -20 14 17 0 53 -6 80 -13z m-230 -6 c13 -6 5 -7 -25 -3 -25 3
-47 7 -49 9 -9 8 55 2 74 -6z m180 -50 c22 -10 35 -19 29 -19 -7 -1 -31 8 -55
19 -24 11 -37 19 -29 19 8 0 33 -9 55 -19z m1642 -30 c-26 -16 -50 -30 -54
-30 -14 0 23 33 51 45 52 22 52 17 3 -15z m123 -5 c-7 -8 -17 -15 -22 -15 -6
0 -5 7 2 15 7 8 17 15 22 15 6 0 5 -7 -2 -15z m-1813 -1 c-3 -3 -12 -4 -19 -1
-8 3 -5 6 6 6 11 1 17 -2 13 -5z m-262 -44 c3 -5 2 -10 -4 -10 -5 0 -13 5 -16
10 -3 6 -2 10 4 10 5 0 13 -4 16 -10z m1398 -20 c-3 -11 -9 -20 -14 -20 -11 0
-11 3 -3 24 9 23 23 20 17 -4z m-1233 -16 c0 -2 -16 -4 -36 -4 -19 0 -33 4
-30 8 5 8 66 4 66 -4z m620 -97 c0 -5 16 -36 35 -69 41 -69 42 -87 2 -30 -29
41 -51 83 -62 122 -7 24 -7 24 9 5 8 -11 16 -24 16 -28z m70 33 c0 -5 -2 -10
-4 -10 -3 0 -8 5 -11 10 -3 6 -1 10 4 10 6 0 11 -4 11 -10z m1427 -165 c-1
-47 -4 -85 -7 -85 -3 0 -11 13 -17 29 -8 23 -7 42 5 85 8 31 17 56 18 56 2 0
2 -38 1 -85z m-48 -65 c52 -78 53 -80 42 -80 -10 0 -131 162 -131 176 0 15 53
-42 89 -96z m-2304 -39 c-25 -38 -56 -78 -67 -88 -21 -18 -21 -18 -8 7 20 39
112 161 117 156 3 -3 -16 -36 -42 -75z m-73 -20 c-11 -15 -29 -46 -41 -69 -12
-23 -23 -42 -26 -42 -6 0 54 142 68 158 22 27 22 -17 -1 -47z m1326 -226 c59
-190 92 -313 91 -338 -1 -17 -2 -18 -6 -4 -2 9 -9 17 -14 17 -5 0 -9 10 -10
23 0 12 -3 16 -6 10 -6 -17 16 -83 28 -83 5 0 9 -10 9 -22 0 -17 -3 -19 -12
-10 -16 16 -33 15 -19 -1 16 -20 3 -27 -26 -16 -31 12 -254 12 -286 0 l-24 -9
8 56 c5 32 11 75 14 97 l6 40 -21 -34 c-25 -39 -38 -35 -17 6 8 15 20 53 27
83 6 30 20 84 31 120 10 36 19 95 21 132 1 38 5 65 9 60 3 -4 14 -50 23 -102
21 -120 77 -384 82 -389 2 -2 6 -2 9 1 9 9 24 254 25 403 1 87 5 130 10 115 4
-14 26 -83 48 -155z m1145 101 c16 -11 40 -40 54 -63 14 -24 29 -43 35 -43 5
0 6 -5 3 -10 -4 -7 -24 5 -48 27 -23 21 -59 51 -80 67 -23 18 -36 35 -33 43 3
8 2 12 -3 9 -4 -3 -17 4 -27 16 -19 20 -18 20 26 -2 24 -12 57 -32 73 -44z
m-2399 19 c-4 -8 -12 -15 -20 -15 -8 0 -14 -4 -14 -10 0 -5 -25 -35 -57 -67
-31 -32 -53 -52 -49 -45 4 6 2 12 -3 12 -6 0 -11 -8 -11 -17 0 -10 -12 -26
-25 -36 -31 -22 -31 -13 -2 38 27 49 137 141 184 154 1 1 0 -6 -3 -14z m1670
-61 c13 -35 7 -54 -19 -54 -21 0 -25 5 -25 28 0 16 3 32 7 35 11 12 31 7 37
-9z m-989 -54 c9 -28 -2 -40 -36 -40 -33 0 -35 6 -13 38 19 27 41 28 49 2z
m905 -15 c0 -8 -4 -15 -10 -15 -5 0 -10 7 -10 15 0 8 5 15 10 15 6 0 10 -7 10
-15z m-1083 -67 c-2 -13 -4 -5 -4 17 -1 22 1 32 4 23 2 -10 2 -28 0 -40z
m1425 23 c26 -13 40 -15 48 -7 22 22 9 -25 -19 -71 -29 -47 -97 -97 -164 -122
-38 -15 -134 -13 -178 3 -55 19 -104 61 -107 90 -1 14 3 28 8 31 6 3 10 14 10
24 0 17 42 42 78 47 7 1 24 -21 38 -49 33 -67 62 -97 90 -97 27 0 60 39 69 82
4 17 16 46 27 65 22 37 30 37 100 4z m152 2 c-13 -52 -74 -162 -111 -199 -20
-20 -65 -50 -100 -66 -61 -29 -69 -30 -166 -26 -82 4 -113 10 -158 30 -55 25
-99 67 -99 96 0 12 3 12 23 -2 12 -9 47 -29 77 -44 49 -24 67 -27 155 -27 90
0 106 3 157 29 83 41 141 96 179 171 36 68 54 84 43 38z m-1846 -31 c101 -204
289 -286 490 -213 27 10 61 26 73 35 58 40 67 2 10 -43 -62 -50 -113 -64 -231
-65 -99 -1 -108 1 -165 31 -66 34 -137 99 -162 147 -16 31 -53 134 -53 148 0
21 17 3 38 -40z m79 16 c-3 -8 -6 -5 -6 6 -1 11 2 17 5 13 3 -3 4 -12 1 -19z
m184 -69 c16 -18 29 -37 29 -43 0 -16 42 -56 60 -56 33 0 80 72 100 155 l8 30
1 -28 c1 -19 8 -30 24 -36 15 -6 30 -26 42 -57 l18 -47 -27 -24 c-15 -13 -35
-23 -45 -23 -9 0 -23 -6 -29 -12 -8 -8 -41 -12 -87 -12 -64 1 -84 6 -140 34
-68 34 -125 93 -125 126 0 16 2 17 11 4 7 -11 8 -4 5 25 -3 22 -3 32 0 23 8
-28 67 -24 95 7 l24 24 3 -28 c2 -16 16 -43 33 -62z m2019 -19 c30 -35 57 -68
58 -74 5 -14 -89 78 -124 123 -46 57 5 20 66 -49z m-2656 25 c-15 -20 -32 -39
-38 -43 -7 -4 -40 -41 -75 -82 -73 -86 -81 -95 -58 -60 9 14 29 48 46 75 31
54 46 70 105 115 50 39 53 38 20 -5z m2694 -167 c9 -16 23 -28 32 -28 13 0 13
-1 0 -10 -8 -5 -28 -10 -45 -9 -30 0 -30 0 -7 12 l23 13 -41 44 c-23 25 -46
54 -52 65 -15 29 70 -55 90 -87z m-2698 50 c-11 -12 -20 -26 -20 -31 0 -5 -23
-38 -51 -73 -41 -52 -56 -64 -80 -64 -16 0 -29 5 -29 10 0 6 5 10 11 10 14 0
87 79 95 103 5 16 69 65 87 66 4 1 -1 -9 -13 -21z m1121 -102 c-14 -36 -22
-33 -9 5 6 16 12 28 14 26 3 -2 0 -16 -5 -31z m-1311 -10 c0 -2 -8 -10 -17
-17 -16 -13 -17 -12 -4 4 13 16 21 21 21 13z m3010 -6 c0 -5 -2 -10 -4 -10 -3
0 -8 5 -11 10 -3 6 -1 10 4 10 6 0 11 -4 11 -10z m-134 -120 c-41 -62 -66 -86
-66 -62 0 13 102 143 108 138 3 -3 -16 -37 -42 -76z m-2736 -142 c0 -21 -28
-2 -87 60 -63 65 -103 118 -103 136 0 10 189 -186 190 -196z m-113 186 c-3 -3
-12 -4 -19 -1 -8 3 -5 6 6 6 11 1 17 -2 13 -5z m1463 -4 c0 -5 12 -10 28 -9
24 0 25 1 7 9 -14 6 -1 9 43 9 70 1 102 -11 102 -37 -1 -15 -2 -15 -13 -2 -12
16 -63 28 -54 13 3 -4 -13 -9 -36 -11 -22 -1 -47 -8 -54 -14 -7 -5 -20 -8 -28
-4 -9 3 -14 2 -12 -2 2 -4 -4 -14 -13 -23 -15 -14 -19 -14 -44 8 -28 24 -20
31 15 13 22 -13 25 -5 5 16 -8 8 -22 11 -30 8 -17 -6 -46 11 -46 27 0 5 29 9
65 9 37 0 65 -4 65 -10z m-157 -24 c-10 -13 -20 -20 -21 -15 -5 12 17 39 30
39 5 0 1 -11 -9 -24z m-698 -107 c-132 -11 -319 -43 -439 -74 -107 -28 -114
-29 -100 -16 14 15 248 71 354 86 52 7 138 13 190 13 l95 -1 -100 -8z m-432
-26 c-7 -2 -19 -2 -25 0 -7 3 -2 5 12 5 14 0 19 -2 13 -5z m2627 -37 c0 -1
-22 -17 -50 -34 -27 -17 -50 -35 -50 -41 0 -5 -8 -12 -17 -15 -10 -4 4 16 32
43 27 28 57 51 67 51 10 0 18 -2 18 -4z m-2745 -16 c-3 -5 -13 -10 -21 -10 -8
0 -14 -5 -14 -12 0 -6 -2 -9 -5 -6 -11 11 8 38 27 38 10 0 16 -4 13 -10z m152
-75 c32 -31 72 -59 88 -64 l30 -9 -32 -1 c-18 -1 -33 4 -33 9 0 6 -11 15 -25
22 -36 16 -121 98 -102 98 9 0 43 -25 74 -55z m2470 -31 c-3 -3 -12 -4 -19 -1
-8 3 -5 6 6 6 11 1 17 -2 13 -5z m-2437 -64 c0 -11 -40 -34 -47 -26 -7 7 20
35 35 36 6 0 12 -4 12 -10z m126 -46 c18 -14 18 -14 -6 -3 -31 14 -36 19 -24
19 6 0 19 -7 30 -16z m-36 -24 c0 -5 -2 -10 -4 -10 -3 0 -8 5 -11 10 -3 6 -1
10 4 10 6 0 11 -4 11 -10z m100 -30 c0 -15 -5 -12 -26 11 -19 22 -19 22 4 10
12 -6 22 -16 22 -21z"/>
<path d="M2760 3991 c0 -5 5 -13 10 -16 6 -3 10 -2 10 4 0 5 -4 13 -10 16 -5
3 -10 2 -10 -4z"/>
<path d="M2060 2191 c0 -11 26 -22 34 -14 12 12 5 23 -14 23 -11 0 -20 -4 -20
-9z"/>
<path d="M1245 2180 c3 -5 11 -10 16 -10 6 0 7 5 4 10 -3 6 -11 10 -16 10 -6
0 -7 -4 -4 -10z"/>
<path d="M1280 2160 c0 -5 9 -10 21 -10 11 0 17 5 14 10 -3 6 -13 10 -21 10
-8 0 -14 -4 -14 -10z"/>
<path d="M1965 2129 c-10 -15 1 -22 24 -14 12 3 19 11 16 16 -8 12 -32 11 -40
-2z"/>
<path d="M1146 2101 c-3 -5 6 -11 19 -14 25 -4 40 4 28 17 -9 9 -41 7 -47 -3z"/>
<path d="M1380 2101 c0 -5 7 -11 15 -15 9 -3 15 0 15 9 0 8 -7 15 -15 15 -8 0
-15 -4 -15 -9z"/>
<path d="M1223 2093 c9 -2 25 -2 35 0 9 3 1 5 -18 5 -19 0 -27 -2 -17 -5z"/>
<path d="M2408 2029 c-3 -8 -5 -18 -4 -22 0 -5 -7 -13 -16 -18 -30 -17 -20
-29 24 -29 71 0 283 -68 371 -120 82 -47 150 -81 155 -76 3 3 4 26 4 51 -2 41
1 46 35 69 20 14 40 23 45 20 4 -3 8 -3 8 0 0 6 -55 34 -115 57 l-49 19 -39
-28 c-57 -41 -88 -59 -57 -34 14 11 34 27 45 35 11 9 17 18 14 21 -10 10 -260
56 -340 63 -60 4 -77 3 -81 -8z"/>
<path d="M2065 2020 c3 -5 15 -10 26 -10 11 0 17 5 14 10 -3 6 -15 10 -26 10
-11 0 -17 -4 -14 -10z"/>
<path d="M2175 2021 c23 -10 213 -26 205 -18 -3 3 -30 8 -60 11 -30 3 -80 8
-110 11 -36 3 -48 2 -35 -4z"/>
<path d="M1860 2010 c0 -5 7 -10 16 -10 8 0 12 5 9 10 -3 6 -10 10 -16 10 -5
0 -9 -4 -9 -10z"/>
<path d="M1980 1994 c0 -8 5 -12 10 -9 6 4 8 11 5 16 -9 14 -15 11 -15 -7z"/>
<path d="M1140 1984 l-45 -13 40 4 c22 3 48 5 58 6 9 0 17 4 17 10 0 12 -14
10 -70 -7z"/>
<path d="M1265 1990 c-3 -5 -2 -10 4 -10 5 0 13 5 16 10 3 6 2 10 -4 10 -5 0
-13 -4 -16 -10z"/>
<path d="M1460 1989 c0 -5 5 -7 10 -4 6 3 10 8 10 11 0 2 -4 4 -10 4 -5 0 -10
-5 -10 -11z"/>
<path d="M1350 1980 c0 -5 5 -10 10 -10 6 0 10 5 10 10 0 6 -4 10 -10 10 -5 0
-10 -4 -10 -10z"/>
<path d="M2340 1925 c-35 -24 -37 -25 -90 -11 -30 8 -64 18 -75 22 -14 5 -17
4 -10 -4 6 -5 48 -22 95 -38 47 -15 123 -45 170 -67 47 -23 95 -44 108 -48 38
-12 16 6 -37 31 -47 21 -66 40 -41 40 6 0 10 -4 10 -9 0 -5 24 -19 54 -31 30
-12 57 -28 60 -36 3 -7 41 -31 85 -54 79 -39 151 -93 151 -112 0 -6 -15 3 -34
20 -19 17 -45 33 -58 37 -13 4 -30 13 -38 19 -21 18 -271 129 -360 161 -41 15
-92 33 -113 41 -61 23 -62 17 -7 -46 32 -37 46 -60 37 -60 -9 0 -17 -4 -19 -8
-1 -5 -45 -31 -96 -58 -51 -27 -125 -78 -165 -113 -107 -94 -193 -126 -329
-119 -102 4 -175 35 -233 98 -52 56 -121 99 -223 140 -45 19 -82 38 -82 43 0
4 -7 2 -15 -7 -8 -8 -15 -19 -15 -25 0 -6 -4 -11 -10 -11 -5 0 -10 3 -10 6 0
7 60 76 73 84 15 9 113 105 111 108 -1 2 -25 -8 -53 -22 -28 -13 -70 -27 -94
-31 -23 -4 -46 -11 -52 -15 -23 -17 -45 -19 -45 -5 0 8 9 15 20 15 11 0 20 4
20 8 0 5 10 14 23 20 18 10 14 11 -28 6 -35 -4 -46 -2 -35 5 8 5 11 13 7 17
-14 15 -215 -60 -364 -136 -186 -95 -207 -116 -164 -159 17 -17 25 -18 58 -9
24 6 38 7 41 0 1 -5 18 -4 40 5 20 7 46 17 57 20 11 4 52 23 90 43 67 36 72
36 115 25 52 -14 182 -75 160 -75 -8 0 -35 10 -60 21 -25 12 -66 27 -92 35
-44 14 -49 13 -95 -10 -26 -13 -88 -44 -138 -69 -102 -50 -137 -75 -117 -83
23 -10 12 -44 -58 -178 -43 -83 -70 -147 -70 -166 0 -35 15 -69 39 -87 41 -32
431 -130 536 -135 50 -3 87 -12 129 -31 58 -27 195 -59 304 -72 30 -3 84 -20
120 -38 64 -30 72 -31 186 -30 115 2 122 3 190 37 99 49 124 57 183 62 28 2
71 12 95 23 45 19 92 31 218 56 160 32 217 46 265 66 27 12 81 30 118 41 91
25 137 49 175 93 22 24 32 46 32 68 0 33 -31 110 -54 137 -8 8 -35 54 -61 102
l-47 88 35 72 c24 52 32 77 25 86 -8 9 -5 12 8 12 15 0 12 5 -11 20 -16 11
-48 29 -70 40 -22 11 -62 33 -90 50 -27 16 -79 39 -115 50 -36 12 -74 25 -85
30 -22 9 -119 30 -138 30 -7 0 -28 -11 -47 -25z m20 -25 c-24 -15 -37 -11 -16
5 11 8 22 12 25 9 3 -3 -1 -9 -9 -14z m30 -20 c0 -5 -4 -10 -9 -10 -6 0 -13 5
-16 10 -3 6 1 10 9 10 9 0 16 -4 16 -10z m-1230 -15 c-17 -20 -62 -42 -148
-71 -41 -13 -91 -33 -113 -44 -21 -11 -51 -22 -66 -25 -16 -2 -39 -7 -52 -11
-15 -5 -22 -3 -18 3 7 10 -23 42 -58 61 -12 7 -14 12 -6 12 7 0 29 -14 48 -31
41 -35 63 -34 153 11 30 15 93 40 140 55 47 16 94 35 105 42 26 17 30 16 15
-2z m1120 -20 c8 -8 27 -18 43 -24 30 -12 35 -32 12 -51 -13 -11 -19 -9 -33
10 -9 13 -33 38 -52 57 -32 32 -33 34 -10 28 14 -4 32 -13 40 -20z m400 -29
c0 -2 -7 -7 -16 -10 -8 -3 -12 -2 -9 4 6 10 25 14 25 6z m-50 -31 c-7 -8 -17
-15 -23 -15 -6 0 -2 7 9 15 25 19 30 19 14 0z m-120 -39 c0 -7 -86 -55 -135
-76 -25 -11 -45 -17 -45 -15 0 5 163 95 173 95 4 0 7 -2 7 -4z m70 -35 c0 -15
-16 -22 -34 -15 -25 9 -19 24 9 24 14 0 25 -4 25 -9z m-36 -68 c55 -59 51 -72
-6 -15 -22 23 -44 42 -48 42 -3 0 -32 -16 -64 -35 -62 -37 -87 -47 -46 -17 21
14 111 70 117 71 1 1 22 -20 47 -46z m-1627 -21 c34 -15 63 -30 63 -34 0 -9
-104 34 -108 44 -7 16 -32 7 -48 -17 -9 -14 -26 -31 -38 -37 -20 -11 -20 -10
-6 8 8 10 23 25 33 33 10 7 16 19 13 27 -6 15 4 13 91 -24z m943 -132 c-37
-28 -128 -50 -201 -49 l-64 2 75 7 c41 5 104 19 140 33 81 31 80 31 50 7z
m780 -34 c0 -3 -4 -8 -10 -11 -5 -3 -10 -1 -10 4 0 6 5 11 10 11 6 0 10 -2 10
-4z m-1877 -18 c-5 -7 -27 -40 -48 -73 -72 -113 -108 -155 -132 -155 -13 0
-23 2 -23 5 0 13 33 54 39 50 4 -2 25 19 47 47 46 61 115 138 121 138 3 0 1
-6 -4 -12z m1979 -97 c43 -42 78 -79 78 -83 0 -5 -10 -8 -23 -8 -23 0 -91 73
-140 149 -30 48 -8 33 85 -58z m-2098 -1 c-10 -16 -20 -28 -22 -26 -4 5 28 56
35 56 2 0 -4 -13 -13 -30z m1266 -8 c0 -4 -102 -9 -227 -10 -288 -3 -279 1
-275 -128 2 -48 6 -93 10 -100 8 -14 84 -69 150 -110 33 -20 56 -26 106 -27
35 -1 68 -6 73 -11 4 -4 -26 -7 -68 -4 -72 3 -81 6 -145 50 -38 25 -80 49 -92
53 -36 11 -52 62 -52 165 0 54 4 89 9 85 5 -3 16 3 23 13 7 10 20 21 28 25 23
8 460 8 460 -1z m17 -104 c-2 -13 -4 -3 -4 22 0 25 2 35 4 23 2 -13 2 -33 0
-45z m-399 -18 c7 -39 12 -85 11 -103 0 -32 0 -32 -11 -7 -11 26 -38 146 -38
167 0 7 6 13 13 13 8 0 17 -26 25 -70z m115 56 c3 -8 9 -42 13 -76 4 -33 11
-63 16 -66 5 -3 6 -14 3 -25 -4 -10 -2 -19 4 -19 12 0 2 -32 -13 -42 -25 -17
-36 -7 -38 35 -1 36 -2 38 -5 10 -3 -20 -10 -33 -19 -33 -8 0 -14 4 -14 9 0 5
-8 8 -17 7 -16 -1 -18 11 -21 97 -3 92 -2 97 18 97 18 0 20 -6 20 -60 0 -37 4
-60 11 -60 8 0 10 23 7 70 -3 60 -1 70 13 70 9 0 19 -6 22 -14z m98 2 c5 -109
3 -138 -8 -138 -7 0 -16 -8 -22 -17 -15 -27 -26 -7 -13 22 16 34 15 118 0 133
-9 9 -6 12 15 12 15 0 27 -6 28 -12z m54 -20 c24 -42 26 -75 3 -81 -15 -4 -18
-14 -16 -59 l3 -53 -32 -3 c-18 -2 -33 1 -33 6 0 15 36 43 45 35 4 -5 5 36 1
90 -3 53 -3 97 2 97 4 0 16 -14 27 -32z m55 17 c7 -9 11 -18 8 -21 -7 -7 -58
17 -58 28 0 14 37 9 50 -7z m-1330 -45 c0 -5 -5 -10 -11 -10 -5 0 -7 5 -4 10
3 6 8 10 11 10 2 0 4 -4 4 -10z m1347 -22 c-3 -7 -5 -2 -5 12 0 14 2 19 5 13
2 -7 2 -19 0 -25z m70 -30 c-3 -7 -5 -2 -5 12 0 14 2 19 5 13 2 -7 2 -19 0
-25z m-65 -30 c-9 -9 -12 -7 -12 12 0 19 3 21 12 12 9 -9 9 -15 0 -24z m-44
-65 c-13 -16 -15 -16 -21 1 -4 10 0 14 13 13 14 -1 16 -4 8 -14z m68 -28 c-20
-7 -44 -19 -53 -26 -13 -11 -15 -11 -9 -1 13 22 67 51 83 45 10 -4 2 -10 -21
-18z m-86 -50 c-7 -8 -22 -15 -34 -15 -17 1 -16 3 9 15 39 18 40 18 25 0z"/>
<path d="M2320 1790 c0 -5 5 -10 10 -10 6 0 10 5 10 10 0 6 -4 10 -10 10 -5 0
-10 -4 -10 -10z"/>
<path d="M1016 1931 c-4 -5 3 -7 14 -4 23 6 26 13 6 13 -8 0 -17 -4 -20 -9z"/>
<path d="M2080 1930 c19 -13 30 -13 30 0 0 6 -10 10 -22 10 -19 0 -20 -2 -8
-10z"/>
<path d="M350 1890 c-8 -5 -12 -11 -9 -14 2 -3 11 -1 19 4 8 5 12 11 9 14 -2
3 -11 1 -19 -4z"/>
<path d="M1769 519 c-11 -6 -15 -49 -17 -206 -4 -234 0 -266 31 -261 22 3 22
5 25 234 2 241 0 257 -39 233z"/>
<path d="M1595 443 c-14 -32 -53 -112 -87 -179 -60 -119 -68 -154 -33 -154 11
0 44 58 100 172 46 95 85 182 87 193 2 14 -3 21 -19 23 -19 3 -27 -6 -48 -55z"/>
<path d="M126 474 c-13 -13 -16 -42 -16 -160 0 -81 5 -154 10 -165 9 -15 21
-19 63 -19 72 0 120 15 157 50 27 25 31 35 25 58 -3 15 -17 38 -30 52 -21 22
-22 27 -9 44 8 11 14 36 14 57 0 30 -7 43 -35 68 -32 28 -42 31 -100 31 -44 0
-68 -5 -79 -16z m140 -55 c8 -6 14 -24 14 -40 0 -33 -27 -52 -68 -47 -25 3
-27 7 -30 57 l-3 54 36 -6 c20 -3 43 -11 51 -18z m22 -165 c12 -8 22 -18 22
-23 0 -19 -40 -41 -83 -47 l-47 -7 0 52 0 51 43 -6 c23 -4 52 -13 65 -20z"/>
<path d="M1920 467 c0 -12 7 -33 16 -45 9 -13 42 -86 75 -164 32 -78 63 -146
68 -151 14 -14 41 -1 41 19 0 21 -104 273 -134 326 -25 45 -66 54 -66 15z"/>
<path d="M3038 463 c-30 -12 -38 -21 -38 -40 0 -23 3 -25 33 -19 106 22 132
15 125 -36 -2 -18 -12 -25 -45 -32 -60 -13 -72 -56 -15 -56 58 0 96 -62 60
-98 -19 -19 -83 -14 -123 9 -34 20 -38 21 -53 5 -13 -12 -14 -20 -6 -34 20
-31 56 -43 126 -40 54 3 72 8 92 27 35 33 43 82 21 132 -14 30 -16 42 -7 51
15 15 16 73 2 99 -25 46 -104 61 -172 32z"/>
<path d="M442 368 l-33 -9 3 -117 3 -117 68 1 c51 0 74 5 95 21 33 24 40 58
16 84 -14 16 -15 23 -6 45 28 60 -58 115 -146 92z m98 -66 c-1 -21 -30 -43
-48 -38 -23 8 -34 40 -20 54 11 11 68 -4 68 -16z m-3 -84 c36 -29 0 -65 -51
-52 -20 5 -26 12 -26 33 0 15 3 31 7 35 9 9 53 -1 70 -16z"/>
<path d="M699 355 c-63 -34 -78 -156 -24 -202 50 -43 195 -23 195 27 0 24 -19
26 -46 5 -10 -8 -28 -15 -40 -15 -21 0 -74 21 -74 31 0 3 33 21 73 40 60 28
73 38 75 61 5 42 -28 68 -85 68 -27 -1 -60 -7 -74 -15z m90 -44 c11 -7 7 -12
-15 -24 -70 -35 -96 -29 -54 13 21 21 46 25 69 11z"/>
<path d="M922 192 l3 -177 25 0 c23 0 25 4 28 52 l3 53 46 0 c37 0 50 5 74 31
16 17 30 43 30 58 5 81 -15 145 -48 154 -10 3 -51 5 -91 5 l-72 0 2 -176z
m142 106 c17 -29 8 -106 -15 -121 -9 -5 -28 -7 -43 -3 -26 6 -27 9 -24 64 3
49 6 58 28 69 34 17 37 16 54 -9z"/>
<path d="M1187 358 c-2 -7 12 -32 31 -56 l35 -42 -47 -50 c-50 -53 -54 -65
-30 -74 10 -4 34 9 65 35 l50 42 35 -42 c20 -22 44 -41 55 -41 35 0 33 28 -5
70 -20 22 -36 45 -36 50 0 6 18 26 40 46 42 38 53 74 22 74 -10 0 -33 -16 -52
-35 -19 -19 -39 -35 -45 -35 -6 0 -26 16 -45 35 -35 36 -65 45 -73 23z"/>
<path d="M2181 356 c-8 -9 -11 -51 -9 -122 l3 -109 65 1 c110 1 161 45 118
100 -18 22 -19 29 -8 49 28 52 -22 95 -108 95 -30 0 -54 -5 -61 -14z m93 -36
c14 -5 26 -16 26 -24 0 -19 -34 -38 -54 -30 -16 6 -22 45 -9 57 8 9 7 9 37 -3z
m28 -107 c24 -22 6 -53 -30 -53 -37 0 -49 14 -44 51 4 27 7 30 31 24 14 -4 34
-14 43 -22z"/>
<path d="M2405 348 c-3 -13 -5 -68 -3 -123 3 -88 5 -100 22 -103 23 -5 36 14
36 54 0 36 13 44 70 44 l39 0 3 -47 c3 -44 5 -48 28 -48 l25 0 3 123 c2 114 1
122 -16 122 -26 0 -40 -18 -44 -59 -3 -34 -4 -35 -55 -38 l-52 -3 -3 48 c-3
40 -6 47 -25 50 -16 2 -24 -3 -28 -20z"/>
<path d="M2684 357 c-2 -7 -3 -62 -2 -123 3 -106 4 -109 27 -112 18 -3 40 12
92 64 l68 67 3 -64 c3 -61 4 -64 28 -64 l25 0 0 120 c0 115 -1 120 -21 123
-17 2 -33 -11 -65 -54 -86 -112 -99 -118 -99 -41 0 71 -9 97 -31 97 -11 0 -22
-6 -25 -13z"/>
</g>
</svg>
